<?xml version="1.0" encoding="utf-8"?>
<!-- Generator: Adobe Illustrator 26.0.2, SVG Export Plug-In . SVG Version: 6.00 Build 0)  -->
<svg version="1.1" id="レイヤー_1" xmlns="http://www.w3.org/2000/svg" xmlns:xlink="http://www.w3.org/1999/xlink" x="0px"
	 y="0px" viewBox="0 0 300 300" style="enable-background:new 0 0 300 300;" xml:space="preserve">
<style type="text/css">
	.st0{fill:#004DA0;}
	.st1{fill:none;stroke:#004EA2;stroke-width:3;stroke-linecap:round;stroke-linejoin:round;}
	.st2{fill:none;stroke:#004EA2;stroke-width:3;stroke-miterlimit:10;}
	.st3{fill:#FFFFFF;stroke:#004EA2;stroke-width:3;stroke-linecap:round;stroke-linejoin:round;}
</style>
<g id="部品見てる人" transform="translate(-0.815 156.902) rotate(-87)">
	<path id="パス_563" class="st0" d="M107.3,65c1.5,3.6,1.2,6.8-2.4,8.3c-3.6,1.5-6.1-0.5-7.6-4.1c-1.5-3.6-1.2-6.8,2.4-8.3
		S105.8,61.4,107.3,65z M112,57c5.8-4.1,11.7-7.8,17.9-11.2c4.3-2.3,9.7-0.6,12,3.8c0.1,0.3,0.3,0.6,0.4,0.9c2,4.4,0.1,9.6-4.3,11.6
		c-0.2,0.1-0.4,0.2-0.6,0.2c-7.1,1.9-14.3,3.5-21.6,4.7c-2.5,0.4-4.9-1-5.8-3.3C108.9,61.3,109.7,58.5,112,57L112,57z"/>
	<path id="パス_569" class="st1" d="M-91,232.2l-14.2-7.7c0,0-13.9-3.5-7.7,9.6l15.4,8.9c0,0,0,10.8,6.5,13.1s14.3,3.3,19.4-4.7
		c5.1-8,6-13,2.3-19.2C-73,226-84.5,221.4-91,232.2z"/>
	<path id="パス_570" class="st1" d="M-94.2,184.5c0,0,24.9-6.2,31.4,11.6s15.7,22.5,15.7,22.5s15.2,7.2,21.7-3s9.3-40.6,37.9-41.6
		c28.6-0.9,59.1-3.3,71.6,35.6s-25.3,58.5-32.5,59.5s-55.2,13.1-67.7-8.4c0,0-13.9-10.8-27.2-0.5c0,0-11.2,10.3-8.8,23.4
		c0,0,6.9,21.6-21.7,19.7"/>
	<path id="パス_571" class="st1" d="M57.2,196.1c0,0,12.5-6.6,26.8,13.6"/>
	<path id="パス_572" class="st1" d="M68.9,215.7c0,0,9-4.1,17.6,8.8"/>
	<path id="パス_573" class="st1" d="M61.9,232.2c0,0,18.5-6.8,22.2,6.4"/>
	
		<ellipse id="楕円形_50" transform="matrix(-1 2.554287e-06 -2.554287e-06 -1 43.017 402.0905)" class="st0" cx="21.5" cy="201" rx="4.8" ry="4.9"/>
	
		<ellipse id="楕円形_51" transform="matrix(-1 2.554316e-06 -2.554316e-06 -1 43.0171 460.8234)" class="st0" cx="21.5" cy="230.4" rx="4.8" ry="4.9"/>
	<path id="パス_574" class="st2" d="M36.3,271.8c0,0,10.5,10,0,14.7c0,0-17.9,2.3-17.4-3.7c0,0-3.5-7.1,2.6-8.5L36.3,271.8z"/>
	<path id="パス_575" class="st1" d="M-103.7,16.4c0,0,16-6.2,17.2,26.9c0,0,7.2,14.6,34.3,13.5c0,0,19.9-37,55.3-32.6
		c0,0,65.8-7.8,72.5,40.4s-48.1,55-48.1,55s-57,14.6-73.6-21.9c0,0-30.2-6.7-37.5,5.1c0,0-3.6,25.3-8.5,29.7"/>
	<path id="パス_576" class="st1" d="M37.2,114.6c0,0,1.3-28.1,12.6-29.7c0,0-32.6-33.7-26.4-56.1"/>
	<path id="パス_577" class="st1" d="M-3.6,21.4c0,0,1.1-15.2,20.4-15.2s5.8,15.2,5.8,15.2"/>
	<path id="パス_578" class="st1" d="M-7.4,15.9c0,0-60.3,7.9-69.7-9.6"/>
	<path id="パス_579" class="st1" d="M-46.2,36c0,0-27.6,6.7-33.7-10.1"/>
	<path id="パス_580" class="st1" d="M-2.4,55.1c0,0,1.1-10.7,8.1-10.5c0,0,11.7-3,13,8.2c0,0,0.4,12.3-9.5,12.3
		C9.3,65.1-2,67-2.4,55.1z"/>
	<path id="パス_581" class="st1" d="M-3.6,94.1c0,0,1.1-10.7,8.1-10.5c0,0,11.7-3,13,8.2c0,0,0.4,12.4-9.5,12.4
		C8.1,104.2-3.1,106-3.6,94.1z"/>
	<line id="線_66" class="st1" x1="9.3" y1="65.1" x2="9.3" y2="83.4"/>
	<path id="パス_582" class="st3" d="M-62.5,137.4h30l23.3-0.1c7.4,0.9,5.4-4.8,5.4-4.8c-4.8-6.8-1.7-18-1.7-18
		c4.1-7.2,7.2,1,7.2,1l6.6,10.7c12.2,8.4,11.3-6.1,11.3-6.1l-4.5-7.9c-2.8-9.1,6.5-6,6.5-6l4.8,6c0,0,9.3,13.7,7.4,21.4
		c0,0-1.1,13.6-18,15.5l-74.5,2.8"/>
	<path id="パス_583" class="st3" d="M96.4,142.1c0,0-26.1-5.2-26-14.4c-1.8,8.9-9.9,15-18.9,14.4c0,0,20.3,1.7,22.5,19
		C74,161.2,77.5,142.7,96.4,142.1z"/>
	<path id="パス_584" class="st0" d="M105.1,211.6c3.7,0.4,6.3,3.6,6,7.2c0,2.9-1.4,4.8-3.7,4.8c-3.7-0.3-6.4-3.6-6.1-7.2
		C101.2,213.5,102.8,211.6,105.1,211.6z M119.8,229.3c-0.2-1.2-0.5-1.5-1.7-2.2l-1.4-0.8c-1.4-0.8-2.2-1.4-2.2-3.1v-3.7
		c0-1.7,1.4-1.6,2.6-1.2l5.7,2.2c1.7,0.6,2.6,1.3,2.8,2.8c0.6,5.1,2.1,13,6.8,13c3,0,4.4-2.8,4.4-6.4c-0.1-2.7-0.7-5.5-1.9-8
		c-0.8-1.6,0-2.4,1.7-2.8l2.9-0.7c1.6-0.4,2.2,0.5,2.8,2c1.5,3.8,2.3,7.9,2.3,12c0,8.8-3.2,15.8-10.3,15.8
		C123.5,248.4,120.7,236.2,119.8,229.3L119.8,229.3z"/>
</g>
<g>
</g>
<g>
</g>
<g>
</g>
<g>
</g>
<g>
</g>
<g>
</g>
<g>
</g>
<g>
</g>
<g>
</g>
<g>
</g>
<g>
</g>
<g>
</g>
<g>
</g>
<g>
</g>
<g>
</g>
</svg>
