<?xml version="1.0" encoding="utf-8"?>
<!-- Generator: Adobe Illustrator 26.0.2, SVG Export Plug-In . SVG Version: 6.00 Build 0)  -->
<svg version="1.1" id="レイヤー_1" xmlns="http://www.w3.org/2000/svg" xmlns:xlink="http://www.w3.org/1999/xlink" x="0px"
	 y="0px" viewBox="0 0 300 300" style="enable-background:new 0 0 300 300;" xml:space="preserve">
<style type="text/css">
	.st0{fill:none;stroke:#004EA2;stroke-width:3;stroke-miterlimit:10;}
	.st1{fill:#004DA0;}
	.st2{fill:none;stroke:#004DA0;stroke-width:3;stroke-miterlimit:10;}
	.st3{fill:#FFFFFF;}
	.st4{fill:#FFFFFF;stroke:#004EA2;stroke-width:3;stroke-linecap:round;stroke-linejoin:round;}
	.st5{fill:none;stroke:#004EA2;stroke-width:3;stroke-linecap:round;stroke-linejoin:round;}
</style>
<g id="虫眼鏡の人" transform="translate(1.501 1.502)">
	<path id="パス_737" class="st0" d="M36.8,106.6c0,0-21.3-10.5-20.8,11.5c0.5,22,20.8,18.1,20.8,18.1V106.6z"/>
	<path id="パス_738" class="st1" d="M260.8,62.2c0.7,0.2,1.4,0.6,2,1c0.6,0.5,1.1,1,1.4,1.6c0.7,1.3,1,2.8,0.6,4.2
		c-0.2,0.7-0.6,1.4-1,2c-0.4,0.6-1,1-1.6,1.4c-0.6,0.4-1.3,0.6-2,0.7c-0.7,0.1-1.5,0-2.2-0.2c-0.8-0.2-1.5-0.6-2.1-1
		c-0.6-0.4-1.1-1-1.5-1.6c-0.4-0.6-0.6-1.3-0.7-2c-0.1-0.8-0.1-1.5,0.1-2.3c0.2-0.7,0.5-1.4,1-2c0.4-0.6,1-1,1.6-1.4
		c0.7-0.4,1.4-0.6,2.1-0.7C259.2,61.8,260,61.9,260.8,62.2z M261.4,53.6c0.9-3.8,1.6-7.7,2.1-11.7c0.5-4,1.1-7.9,1.6-11.9
		c0.5-3.9,1-7.7,1.6-11.4c0.5-3.5,1.2-7,2.1-10.4c0.3-1.1,0.8-2.2,1.4-3.1c0.5-0.8,1.2-1.5,2-2.1c0.7-0.5,1.5-0.9,2.3-1
		c0.8-0.2,1.6-0.2,2.4,0.1c0.8,0.2,1.6,0.6,2.2,1.2c0.6,0.6,1.1,1.3,1.4,2.1c0.4,0.9,0.6,1.9,0.6,2.9c0,1.2-0.1,2.3-0.4,3.5
		c-0.9,3.4-2,6.8-3.3,10c-1.4,3.5-2.8,7.1-4.3,10.7c-1.5,3.6-3,7.3-4.5,11c-1.5,3.7-2.8,7.5-3.9,11.2L261.4,53.6z"/>
	<path id="パス_739" class="st2" d="M260.8,62.2c0.7,0.2,1.4,0.6,2,1c0.6,0.5,1.1,1,1.4,1.6c0.7,1.3,1,2.8,0.6,4.2
		c-0.2,0.7-0.6,1.4-1,2c-0.4,0.6-1,1-1.6,1.4c-0.6,0.4-1.3,0.6-2,0.7c-0.7,0.1-1.5,0-2.2-0.2c-0.8-0.2-1.5-0.6-2.1-1
		c-0.6-0.4-1.1-1-1.5-1.6c-0.4-0.6-0.6-1.3-0.7-2c-0.1-0.8-0.1-1.5,0.1-2.3c0.2-0.7,0.5-1.4,1-2c0.4-0.6,1-1,1.6-1.4
		c0.7-0.4,1.4-0.6,2.1-0.7C259.2,61.8,260,61.9,260.8,62.2z M261.4,53.6c0.9-3.8,1.6-7.7,2.1-11.7c0.5-4,1.1-7.9,1.6-11.9
		c0.5-3.9,1-7.7,1.6-11.4c0.5-3.5,1.2-7,2.1-10.4c0.3-1.1,0.8-2.2,1.4-3.1c0.5-0.8,1.2-1.5,2-2.1c0.7-0.5,1.5-0.9,2.3-1
		c0.8-0.2,1.6-0.2,2.4,0.1c0.8,0.2,1.6,0.6,2.2,1.2c0.6,0.6,1.1,1.3,1.4,2.1c0.4,0.9,0.6,1.9,0.6,2.9c0,1.2-0.1,2.3-0.4,3.5
		c-0.9,3.4-2,6.8-3.3,10c-1.4,3.5-2.8,7.1-4.3,10.7c-1.5,3.6-3,7.3-4.5,11c-1.5,3.7-2.8,7.5-3.9,11.2L261.4,53.6z"/>
	<path id="パス_740" class="st3" d="M260.8,62.2c0.7,0.2,1.4,0.6,2,1c0.6,0.5,1.1,1,1.4,1.6c0.7,1.3,1,2.8,0.6,4.2
		c-0.2,0.7-0.6,1.4-1,2c-0.4,0.6-1,1-1.6,1.4c-0.6,0.4-1.3,0.6-2,0.7c-0.7,0.1-1.5,0-2.2-0.2c-0.8-0.2-1.5-0.6-2.1-1
		c-0.6-0.4-1.1-1-1.5-1.6c-0.4-0.6-0.6-1.3-0.7-2c-0.1-0.8-0.1-1.5,0.1-2.3c0.2-0.7,0.5-1.4,1-2c0.4-0.6,1-1,1.6-1.4
		c0.7-0.4,1.4-0.6,2.1-0.7C259.2,61.8,260,61.9,260.8,62.2z M261.4,53.6c0.9-3.8,1.6-7.7,2.1-11.7c0.5-4,1.1-7.9,1.6-11.9
		c0.5-3.9,1-7.7,1.6-11.4c0.5-3.5,1.2-7,2.1-10.4c0.3-1.1,0.8-2.2,1.4-3.1c0.5-0.8,1.2-1.5,2-2.1c0.7-0.5,1.5-0.9,2.3-1
		c0.8-0.2,1.6-0.2,2.4,0.1c0.8,0.2,1.6,0.6,2.2,1.2c0.6,0.6,1.1,1.3,1.4,2.1c0.4,0.9,0.6,1.9,0.6,2.9c0,1.2-0.1,2.3-0.4,3.5
		c-0.9,3.4-2,6.8-3.3,10c-1.4,3.5-2.8,7.1-4.3,10.7c-1.5,3.6-3,7.3-4.5,11c-1.5,3.7-2.8,7.5-3.9,11.2L261.4,53.6z"/>
	<path id="パス_741" class="st4" d="M43.1,281.2c6.2-12.2,26.5-18.3,36.9-20.6c12-2.7,21.4-11.6,22.3-20.1
		c1-10.1-2.2-20.1-8.9-27.7c-3.6-4.1-7.8-7.8-12.3-10.8c-3.4-2.2-6.6-4.6-9.5-7.3c-12.9-12-38.7-42-34.6-87.9
		c0,0-5.5-87.1,86.4-97.7c0,0,42.4-7.4,76.9,33c4.9,5.4,8.8,11.7,11.5,18.5"/>
	<path id="パス_742" class="st5" d="M213.4,154.6c0,0-1.7-7.9,2.3-9.7c33.1-15.1,27.9-45.7,27.9-45.7c-3-43.9-46.6-39-46.6-39
		s-34.3,4.6-34.3,43.8c-0.5,16.7,8.8,32.2,23.7,39.7c0,0,8.3,3.6,5.9,10.8"/>
	<ellipse id="楕円形_80" class="st5" cx="203.1" cy="102.8" rx="33.6" ry="34.1"/>
	<path id="パス_743" class="st5" d="M193.1,188v9.9c-0.2,2.4,1.5,4.6,3.8,5h15c0,0,3.8-1.3,3.7-4.3V188"/>
	<path id="パス_744" class="st4" d="M41,74.4c0,0,68,5.6,84.8-37c0,0,5.9,12.9,34.1,21.3c5.7,1.7,11.7,2.7,17.7,3.1
		c4.4,0.3,8.8,0.3,13.1,0.1"/>
	<path id="パス_745" class="st5" d="M179.2,108.1c0,0,8.5-16.4,25.5-15.2c0,0,17.9-0.1,24.9,12.8c0,0-3.1,15.8-23.4,15.7
		C206.2,121.5,185.4,123.1,179.2,108.1z"/>
	<ellipse id="楕円形_81" class="st1" cx="204.9" cy="107.3" rx="13.1" ry="13.2"/>
	<line id="線_84" class="st5" x1="179.8" y1="89.1" x2="182.9" y2="92.8"/>
	<line id="線_85" class="st5" x1="195.2" y1="80.2" x2="196.9" y2="86.9"/>
	<line id="線_86" class="st5" x1="212.3" y1="80.2" x2="212.3" y2="86.9"/>
	<line id="線_87" class="st5" x1="227.2" y1="90.5" x2="224.5" y2="95.3"/>
	<path id="パス_746" class="st5" d="M193.1,197.9c0,0-13,11.2-16.2,21.4c-1.3,4-3.3,10.7,0.4,24.1c1.6,5.6,7,13.4,15.5,13.4"/>
	<path id="パス_747" class="st5" d="M195.2,295.2c-5.2-16.5-0.7-82.8,1.7-92.3"/>
	<ellipse id="楕円形_82" class="st1" cx="97.8" cy="107.8" rx="6.3" ry="6.4"/>
	<path id="パス_748" class="st5" d="M217.8,186.4c-5.6,3.8-16.9,2.8-24.4,1.6c-5.7-0.9-11.1-4.8-12.3-10.5
		c-3.1-14.1,5.2-19.9,12-21.8c16.1-4.5,30-0.4,32.8,6.9c2.5,6.6,3.6,10.7-1.3,28.9c-0.6,2.1-3.3,10.4-2.1,16.4
		c7.9,42.6,4.3,84.4,3.5,87.2"/>
</g>
<g>
</g>
<g>
</g>
<g>
</g>
<g>
</g>
<g>
</g>
<g>
</g>
<g>
</g>
<g>
</g>
<g>
</g>
<g>
</g>
<g>
</g>
<g>
</g>
<g>
</g>
<g>
</g>
<g>
</g>
</svg>
