<?xml version="1.0" encoding="utf-8"?>
<!-- Generator: Adobe Illustrator 26.0.3, SVG Export Plug-In . SVG Version: 6.00 Build 0)  -->
<svg version="1.1" id="レイヤー_1" xmlns="http://www.w3.org/2000/svg" xmlns:xlink="http://www.w3.org/1999/xlink" x="0px"
	 y="0px" viewBox="0 0 220 95.9" style="enable-background:new 0 0 220 95.9;" xml:space="preserve">
<style type="text/css">
	.st0{fill:none;stroke:#004EA2;stroke-width:3;stroke-linecap:round;stroke-linejoin:round;stroke-miterlimit:10;}
	.st1{fill:#FFFFFF;stroke:#004EA2;stroke-width:3;stroke-linecap:round;stroke-linejoin:round;stroke-miterlimit:10;}
	.st2{fill:#004DA0;}
	.st3{fill:#004DA0;stroke:#004EA2;stroke-width:3;stroke-linecap:round;stroke-linejoin:round;stroke-miterlimit:10;}
</style>
<g id="脳みその人_00000111149455607690125460000014506146000526650026_">
	<path class="st0" d="M151.5,36.6c0,0,0.3-2.1,2.2-2.7c0,0,2.3-0.8,3.3,1.4c0,0,1.5-2.1,3.7-1.1c0,0,1.5,0.3,1.9,2.6
		c0,0,2.7-1,3.7,1.2c0,0,1,1.6,0,3.2c0,0,1.7,1.7,0.7,3.7c0,0-0.8,1.9-3,1.3c0,0-0.3,2.3-2.6,2.9c0,0-2.7,0.5-3.2-2
		c0,0-0.9,2.7-3.3,2.5c0,0-2.7-0.4-1.9-3.4c0,0-2.2,2.6-4,1.6c0,0-2.1-0.6-1.9-3.1c0,0-2.3-1.4-1.4-3.9c0,0,0.1-1.7,2.3-1.6
		c0,0-1.1-2,0.3-3C148.1,36.2,149.6,34.6,151.5,36.6z"/>
	<path class="st0" d="M185.2,14.1c0,0-1.1-4.3,3.1-6.3c0,0,3.7-1.3,6.2,2c0,0,2-5.1,6.5-3.5c0,0,3.5,1,2.9,5c0,0,3-3.3,5.7-1.5
		c0,0,3.2,2.6,0,6.6c0,0,4.1,0.6,3.9,4.8c0,0,0.5,3.4-3.9,3.8c0,0,3.1,3,0.4,5.3c0,0-3.8,2.1-5.4-0.8c0,0-0.2,4.1-3.5,4.5
		c0,0-3.7,0.3-3.4-4.4c0,0-0.5,4.2-5,3.9c0,0-3.9-0.6-3.7-4.4c0,0-3.6,2.8-5.8,0.1c0,0-2.3-1.6-1.1-4.5c0,0-3.2-0.1-3.7-4.7
		C178.2,20,177.2,13.7,185.2,14.1z"/>
	<g>
		<path class="st1" d="M46.6,93.9v-3.2c0,0-0.2-53.1,45.3-56.2c0,0,48.5-5,53.8,56.2V94"/>
		<ellipse class="st2" cx="72.8" cy="75.1" rx="2.3" ry="2.3"/>
		<path class="st0" d="M88.1,52.4c0,0,1.6,3.2-2,3.7c0,0-3-0.2-1.8-3.2L81.6,51l-1-0.8"/>
		<path class="st0" d="M89.5,71.5c0,0-6.5,1.4-6.9-3.9c0,0-5.2-1.8-4.4-6.1c0,0-3.1-5.7,0.6-8.8c0,0,1.8-6.3,7.2-4.3
			c0,0,2.8-5.3,8.8-2.6c0,0,5.8-3.7,8.8,1.5c0,0,4.9,0.1,5.4,3.8c0,0,5.2,3,3,8c0,0,1.4,3.9-2.8,6.6c0,0-0.3,6.4-5.7,4.3
			c0,0-3.1,3.8-6.5,1.5C97.1,71.5,92.5,75,89.5,71.5z"/>
		<path class="st0" d="M97.1,65.2c0,0,0.3-3.6,3.6-2.1c0,0,2.4,1.8-0.1,3.7l1.3,3l0.5,1.2"/>
		<path class="st0" d="M88.5,64.1c0,0,2.2-2.8,4.1,0.3c0,0,1,2.8-2.1,3l-0.6,3.2l-0.3,1.3"/>
		<path class="st0" d="M83.4,58.9c0,0,3.5-0.6,2.9,3c0,0-1,2.8-3.5,0.8l-2.6,2.1l-1,0.8"/>
		<path class="st0" d="M97.8,54c0,0-1.6,3.2-4.1,0.5c0,0-1.6-2.6,1.5-3.4l-0.1-3.3v-1.3"/>
		<path class="st0" d="M104.4,56.4c0,0-3.4,1-3.2-2.6c0,0,0.7-2.9,3.4-1.2l2.3-2.3l1-0.9"/>
		<path class="st0" d="M104.1,62.3c0,0-2-3,1.5-3.9c0,0,3-0.1,2.2,2.9l2.9,1.6l1.1,0.7"/>
		<ellipse class="st2" cx="116.3" cy="75.1" rx="2.3" ry="2.3"/>
	</g>
	<g>
		<line class="st0" x1="77.7" y1="37.2" x2="73.7" y2="11.3"/>
		<path class="st3" d="M87.4,19.8l-8.2,1.1c-2.3,0.3-4.4-1.3-4.7-3.5l-0.3-2.1c-0.3-2.3,1.3-4.4,3.5-4.7L86,9.4
			c2.3-0.3,4.4,1.3,4.7,3.5L91,15C91.3,17.3,89.7,19.4,87.4,19.8z"/>
	</g>
	<g>
		<path class="st0" d="M13.8,42.6L6.9,20.3c0,0-0.5-1.5,0.1-3.2l2.5-7.8c0,0,1-1.5,2.6-0.7L19,13c0,0,1,0.5,1.5,2.2l7.2,23.1
			L13.8,42.6z"/>
		<line class="st0" x1="6.7" y1="19.1" x2="20.2" y2="14.6"/>
		<path class="st0" d="M10.4,32.1c0.7-1.5-4.3,4-2.1,11c0,0,0.3,1.5,2.7,4.5l2.8-5L10.4,32.1z"/>
		<path class="st0" d="M24.3,27.5c0,0,6.2,3.1,7.6,7.2c0,0,1.8,3.5,0.1,6.2l-4.3-2.8L24.3,27.5z"/>
		<circle class="st0" cx="16.4" cy="26.5" r="3.3"/>
		<path class="st0" d="M13.8,42.6c0,0,1,6.1,3.4,6.8l0.8-1.8c0,0,1.2,4.7,4.6,5.6c0,0-0.1-2.6,1.2-2.7c0,0,2.7,0.7,2.6,4.3
			c0,0,3.3-3,2.2-8c0,0,2.6-1.7-0.6-8.4L13.8,42.6z"/>
		<path class="st0" d="M28.6,46.9c0,0,0.6-2-0.9-3.1"/>
		<path class="st0" d="M18.2,41.2c0,0,1.1,4.9,4.2,5.4c0,0,2.7-1.8,1.3-6.9L18.2,41.2z"/>
	</g>
</g>
</svg>
