<?xml version="1.0" encoding="utf-8"?>
<!-- Generator: Adobe Illustrator 26.0.2, SVG Export Plug-In . SVG Version: 6.00 Build 0)  -->
<svg version="1.1" id="レイヤー_1" xmlns="http://www.w3.org/2000/svg" xmlns:xlink="http://www.w3.org/1999/xlink" x="0px"
	 y="0px" viewBox="0 0 330 130" style="enable-background:new 0 0 330 130;" xml:space="preserve">
<style type="text/css">
	.st0{fill:#004DA0;}
</style>
<g>
	<path class="st0" d="M222,97.7c-0.3,1.2,0.8,1.2,0.8,1.2h11c0.5,0,0.8-0.3,1-0.7c0,0,5.2-20.9,5.2-20.9L250.4,92
		c0.3,0.4,0.8,0.5,1.2,0.2c0,0,10-5.4,10-5.4c0.3-0.2,0.5-0.7,0.2-1.2c0,0-17.7-23.8-17.7-23.8l2-7.8h16.8c0.5,0,0.9-0.4,0.9-0.8
		v-10c0-0.5-0.4-0.8-0.9-0.8l-13.7,0l4.3-18h9.4c0.5,0,0.9-0.4,0.9-0.8V15c0-0.4-0.3-1-0.9-1c0,0-30.3,0-30.3,0l2.6-12.9
		c0,0,0.4-1.2-0.9-1.2c-6-0.2-11,5.1-11.4,8.6l0,0l-5.1,25.6c0,0.5,0,1.5,0.9,1.5c0,0,9,0.1,9,0.1c0.5,0,0.9-0.3,0.9-0.8
		c0,0.1,2.6-10.7,2.6-10.7h9.7l-4.4,18h-14.3c-0.5,0-0.9,0.4-0.9,0.8v10.1c0,0.4,0.4,0.8,0.9,0.8h11.2L222,97.7z M17.4,14.3
		c-0.5,0-0.9,0.4-0.9,0.8v8.1c0,0.5,0.4,0.8,0.9,0.8h22.6v10H24.4c-7.7,0-8.5,8.6-8.5,8.6L7.2,98.3c0,0.5,0.4,0.9,0.9,0.9
		c0,0,10.8,0,10.8,0c0.5,0,0.9-0.4,0.9-0.8c0,0.1,8-50.5,8-50.5c0.4-2.8,1.9-3.4,4.5-3.4h73.1c0.5,0,0.9-0.4,0.9-0.8v-8.7
		c0-0.5-0.4-0.8-0.9-0.8l-20.7,0v-10h17.9c0.5,0,0.9-0.4,0.9-0.8v-8.1c0-0.5-0.4-0.8-0.9-0.8H68.9l0-12.1c0-0.9-1-0.8-1-0.8
		c-11.2,1.2-11.4,7-11.4,7v5.9H17.4z M73.2,24.1v10H51.6v-10H73.2z M175.7,14.4l-19.3,0c-0.5,0-0.9,0.4-0.9,0.8V24
		c0,0.5,0.4,0.9,0.9,0.9h19.3v9.7h-18.5c-0.5,0-0.9,0.4-0.9,0.9v9.8c0,0.5,0.4,0.9,0.9,0.9l38.5,0c0.6,0,1.3,0,1.3,1.4v4.2
		c0,1.1-0.3,1.8-1.2,2.8c-0.7,0.7-15.2,13.8-15.2,13.8l-19.7-18.2c-0.8-0.7-1.3-0.2-1.3,0.3v14.9c0,0.4,0,0.8,0.4,1.2
		c0,0,11.3,10.3,11.3,10.3l-23.1,20.9c-1.2,1-0.1,1.3-0.1,1.3H164c0,0,0.7,0,1-0.3c-0.1,0.1,15.2-13.7,15.2-13.7l15.1,13.8
		c0.4,0.4,0.8,0.4,1.3,0.4l15.6,0c0.8,0,0.8-1,0.3-1.4c0,0-23-21.2-23-21.2s13.9-12.6,15.1-13.8c4-4,4.1-4.5,4.1-10.3
		c0-0.1,0-17,0-17c0-0.5-0.4-0.9-0.9-0.9h-20.7v-9.7H210c0.5,0,0.9-0.4,0.9-0.9v-8.7c0-0.5-0.4-0.8-0.9-0.8h-23l0-12.2
		c0-0.9-1-0.8-1-0.8c-10,1.2-10.3,7-10.3,7L175.7,14.4z M131.2,14.3h-16.1c-0.5,0-0.9,0.4-0.9,0.8v8.7c0,0.5,0.4,0.8,0.9,0.8h16.3
		v26.8l-19.8,19.2c-0.7,0.7-0.4,1.3,0.3,1.3l13.1,0c0.4,0,0.8,0,1.2-0.4c0,0,5.1-5.2,5.1-5.2v19.1l-6.2-4.7
		c-0.3-0.3-0.7-0.4-1.2-0.4h-12.9c-0.6,0-0.9,0.8-0.3,1.3c0,0,16.6,14.4,16.6,14.4c2.1,1.7,5.3,2.8,7.4,2.8h7c0.5,0,0.9-0.4,0.9-0.8
		l0-41.6l8.8-9.1c0.4-0.3,0.4-0.8,0.4-1.2c0,0,0-12.7,0-12.7c0-0.8-0.7-1-1.3-0.3c0,0-7.9,8.6-7.9,8.6V24.7h6.6
		c0.5,0,0.9-0.4,0.9-0.8v-8.7c0-0.5-0.4-0.8-0.9-0.8c0,0-5.9,0-6.6,0l0-12.1c0-0.9-1-0.8-1-0.8c-10.3,1.3-10.5,7-10.5,7L131.2,14.3z
		 M268.4,9.5c-0.5,0-0.8,0.4-0.8,0.8v9.1c0,0.4,0.4,0.8,0.8,0.8h52.2c0.5,0,0.9-0.4,0.9-0.8v-9.1c0-0.5-0.4-0.8-0.9-0.8H268.4z
		 M277.9,27.2c-4.5,0-8,3.1-8,7v29c0,0.5,0.4,0.8,0.8,0.8c0,0,35.5,0,36.3,0c0,2-2.9,5.8-2.9,5.8l-12.9,17.2h-3.5l-5.8-18.4
		c0,0-0.2-0.9-1-0.6c-3.8,1.3-7.5,5.3-7.5,9.2c0,0.6,0.1,1.1,0.2,1.6c0,0,2.6,8.1,2.6,8.1H265c-0.5,0-0.9,0.4-0.9,0.8v10
		c0,0.5,0.4,0.8,0.9,0.8h57.2c0.5,0,0.9-0.4,0.9-0.8V88c0-0.5-0.4-0.8-0.9-0.8c0,0-15.9,0-17.3,0c0.8-1.2,9.4-13.8,9.4-13.8
		c2.8-3.6,4.2-7.8,4.2-12.7c0,0,0-32.6,0-32.6c0-0.4-0.4-0.8-0.9-0.8H277.9z M307,36.6v18.5h-26.6V36.6H307z M60.7,55.5H43
		c0,0,0.9-5.6,0.9-5.6c0-0.6-0.5-0.9-0.9-0.9c-4-0.3-8.7,2.1-9.6,5.9c0,0-2,13-2,13c0,0.5,0.3,0.9,0.8,0.9c0,0,7.9,0,7.9,0
		c0.4,0,0.8-0.3,0.9-0.7c0,0,0.6-3,0.6-3l19.2,0v7.6h-22c-0.5,0-0.9,0.4-0.9,0.8v7.8c0,0.5,0.4,0.8,0.9,0.8h22v6.7H27.1
		c-0.5,0-0.9,0.4-0.9,0.8v8.5c0,0.5,0.4,0.8,0.9,0.8h78.9c0.5,0,0.9-0.4,0.9-0.8v-8.5c0-0.5-0.4-0.8-0.9-0.8H71.1v-6.7h25
		c0.5,0,0.9-0.4,0.9-0.8v-7.8c0-0.5-0.4-0.8-0.9-0.8l-25,0v-7.6h27.1c0.5,0,0.9-0.4,0.9-0.8v-7.9c0-0.5-0.4-0.8-0.9-0.8
		c0,0-26.3,0-27.1,0l0-8.1c0-0.9-1-0.8-1-0.8c-8.7,1.1-9.4,7-9.4,7L60.7,55.5z"/>
	<path class="st0" d="M42.2,127v-11h1.5v11H42.2z"/>
	<path class="st0" d="M57.3,119.4l-2.7,7.6h-1.6l-1.8-6.3h0l-2,6.3h-1.7l-2.5-7.6h1.6l1.8,6.1h0l1.9-6.1h1.9l1.7,6h0l1.9-6H57.3z"/>
	<path class="st0" d="M62.6,123.3c0,1.4-0.3,2.9-2,2.9c-0.9,0-1.5-0.5-1.5-1.4c0-1.1,1.2-1.4,2.1-1.5H62.6z M61.3,122.3
		c-1.8,0-3.7,0.6-3.7,2.8c0,1.5,1.3,2.2,2.7,2.2c1,0,1.9-0.4,2.4-1.4h0c0,0.3,0,0.7,0.1,1c0,0.2,0.3,0.1,0.4,0.1h1
		c0-0.6-0.1-1.3-0.1-1.6v-3.7c0-2.1-1.5-2.6-3.1-2.6c-1.5,0-2.8,0.6-2.9,2.3h1.5c0-0.8,0.7-1.2,1.4-1.2c1.5,0,1.6,0.8,1.6,2.1H61.3z
		"/>
	<path class="st0" d="M66.3,119.4v-1.6l1.4-0.5v2.1l1.8,0v1.1l-1.8,0v4.9c0,0.6,0.4,0.8,0.9,0.8c0.2,0,0.5,0,0.8-0.1v1.1
		c-0.3,0-0.7,0.1-1,0.1c-0.3,0-0.6,0-1-0.1c-0.2,0-0.6-0.2-0.9-0.5c-0.3-0.4-0.3-0.4-0.3-1.4v-4.9l-1.3,0v-1.1L66.3,119.4z"/>
	<path class="st0" d="M72,122.5c0-1.3,0.7-2.3,1.9-2.3c1.4,0,2,1,1.9,2.3H72z M77.3,123.5v-0.7c0-2.1-1.1-3.6-3.4-3.6
		c-2.4,0-3.5,1.9-3.5,4.1c0,2.3,1,4,3.4,4c1.8,0,3.2-0.9,3.4-2.6h-1.5c-0.2,1.1-0.7,1.6-1.9,1.6c-1.5,0-2-1.4-1.9-2.7H77.3z"/>
	<path class="st0" d="M83.5,127v-11H85v11H83.5z"/>
	<path class="st0" d="M88.1,120.5L88.1,120.5c0.5-1,1.6-1.4,2.3-1.4c0.5,0,2.9,0.1,2.9,2.6v5.3h-1.4v-4.8c0-1.3-0.5-1.9-1.8-1.9
		c0,0-0.8,0-1.4,0.6c-0.2,0.2-0.6,0.6-0.6,2v4.2h-1.4v-7.6h1.4V120.5z"/>
	<path class="st0" d="M95.9,123.2c0-1.4,0.4-3,2.2-3c1.6,0,2.2,1.7,2.2,3c0,1.4-0.4,3.1-2.2,3.1C96.4,126.2,95.9,124.6,95.9,123.2z
		 M100.2,120.4L100.2,120.4c-0.5-0.9-1.4-1.3-2.4-1.3c-2.4,0-3.4,2-3.4,4.1c0,2,0.9,4,3.2,4c1.1,0,2.1-0.4,2.6-1.4h0v0.1l0,1.1h1.5
		c0-0.4-0.1-0.9-0.1-1.4V116h-1.4V120.4z"/>
	<path class="st0" d="M108.3,119.4h1.5v7.6h-1.4v-1.1h0c-0.6,1-1.5,1.4-2.6,1.4c-1.6,0-2.5-1.2-2.5-2.8v-5.1h1.4v4.5
		c0,1.3,0.3,2.3,1.7,2.3c0.6,0,1.4-0.3,1.7-1.1c0.3-0.7,0.3-1.6,0.3-1.8V119.4z"/>
	<path class="st0" d="M114.2,119.1c1.4,0,3.1,0.6,3,2.3h-1.5c0.1-1-0.7-1.3-1.5-1.3c-0.8,0-1.4,0.4-1.4,1.2c0,0.9,1.3,0.9,1.9,1.1
		c1.3,0.4,2.8,0.6,2.8,2.3c0,1.9-1.8,2.5-3.4,2.5c-1.6,0-2.9-0.7-2.9-2.5h1.5c0,0.9,0.7,1.4,1.6,1.4c0.8,0,1.7-0.3,1.7-1.3
		c0-1.7-4.6-0.4-4.6-3.4C111.2,119.9,112.8,119.1,114.2,119.1z"/>
	<path class="st0" d="M119.1,119.4v-1.6l1.4-0.5v2.1l1.8,0v1.1l-1.8,0v4.9c0,0.6,0.4,0.8,0.9,0.8c0.2,0,0.5,0,0.8-0.1v1.1
		c-0.3,0-0.7,0.1-1,0.1c-0.3,0-0.6,0-1-0.1c-0.2,0-0.6-0.2-0.9-0.5c-0.3-0.4-0.3-0.4-0.3-1.4v-4.9l-1.3,0v-1.1L119.1,119.4z"/>
	<path class="st0" d="M124.9,127h-1.4v-7.6h1.4v1.5h0c0.2-1.1,1.2-1.6,2.2-1.6c0.2,0,0.3,0,0.5,0v1.4c-0.2-0.1-0.4-0.1-0.6-0.1
		c-1.8,0.1-2.2,1-2.2,2.6V127z"/>
	<path class="st0" d="M128.7,127v-7.6h1.4v7.6H128.7z M128.6,116h1.7v1.6h-1.7V116z"/>
	<path class="st0" d="M136.3,123.3c0,1.4-0.3,2.9-2,2.9c-0.9,0-1.5-0.5-1.5-1.4c0-1.1,1.2-1.4,2.1-1.5H136.3z M135,122.3
		c-1.8,0-3.7,0.6-3.7,2.8c0,1.5,1.3,2.2,2.7,2.2c1.1,0,1.9-0.4,2.4-1.4h0c0,0.3,0,0.7,0.1,1c0,0.2,0.3,0.1,0.4,0.1h1
		c0-0.6-0.1-1.3-0.1-1.6v-3.7c0-2.1-1.6-2.6-3.1-2.6c-1.5,0-2.8,0.6-2.9,2.3h1.5c0-0.8,0.7-1.2,1.4-1.2c1.5,0,1.6,0.8,1.6,2.1H135z"
		/>
	<path class="st0" d="M139.3,127v-11h1.4v11H139.3z"/>
	<path class="st0" d="M150,117.3h-3.7V116h8.9v1.3h-3.7v9.7H150V117.3z"/>
	<path class="st0" d="M155.4,122.5c0-1.3,0.7-2.3,1.9-2.3c1.4,0,2,1,1.9,2.3H155.4z M160.8,123.5v-0.7c0-2.1-1.1-3.6-3.4-3.6
		c-2.4,0-3.5,1.9-3.5,4.1c0,2.3,1,4,3.4,4c1.8,0,3.2-0.9,3.4-2.6h-1.5c-0.2,1.1-0.7,1.6-1.9,1.6c-1.5,0-2-1.4-1.9-2.7H160.8z"/>
	<path class="st0" d="M166.9,121.8c-0.1-1-0.5-1.6-1.6-1.6c-1.4,0-1.9,1.2-1.9,3c0,1.8,0.5,3,1.9,3c1,0,1.6-0.6,1.6-1.7h1.4
		c-0.1,1.7-1.4,2.8-3.1,2.8c-2.5,0-3.4-1.7-3.4-4c0-2.2,1.1-4.1,3.5-4.1c1.6,0,2.8,1,2.9,2.7H166.9z"/>
	<path class="st0" d="M169.6,127v-11h1.4v4.4h0c0.5-0.9,1.4-1.2,2.5-1.2c2,0,2.6,1.3,2.6,2.7v5.2h-1.4v-4.5c0-1.3-0.3-2.2-1.7-2.2
		c-0.6,0-1.5,0.4-1.7,1.1c-0.3,0.8-0.2,1.3-0.2,1.8v3.9H169.6z"/>
	<path class="st0" d="M179.1,120.5L179.1,120.5c0.5-1,1.6-1.4,2.3-1.4c0.5,0,2.9,0.1,2.9,2.6v5.3h-1.4v-4.8c0-1.3-0.5-1.9-1.8-1.9
		c0,0-0.8,0-1.4,0.6c-0.2,0.2-0.6,0.6-0.6,2v4.2h-1.4v-7.6h1.4V120.5z"/>
	<path class="st0" d="M187.1,123.2c0-1.6,0.6-3,2.3-3c1.7,0,2.3,1.4,2.3,3c0,1.6-0.6,3-2.3,3C187.6,126.2,187.1,124.8,187.1,123.2z
		 M189.3,119.1c-2.5,0-3.8,1.7-3.8,4.1c0,2.4,1.3,4,3.8,4c2.5,0,3.8-1.7,3.8-4C193.2,120.8,191.9,119.1,189.3,119.1z"/>
	<path class="st0" d="M194.3,127v-11h1.4v11H194.3z"/>
	<path class="st0" d="M198.6,123.2c0-1.6,0.6-3,2.3-3c1.7,0,2.3,1.4,2.3,3c0,1.6-0.6,3-2.3,3C199.2,126.2,198.6,124.8,198.6,123.2z
		 M200.9,119.1c-2.5,0-3.8,1.7-3.8,4.1c0,2.4,1.3,4,3.8,4c2.5,0,3.8-1.7,3.8-4C204.7,120.8,203.4,119.1,200.9,119.1z"/>
	<path class="st0" d="M207.4,123c0-1.2,0.5-2.8,2.1-2.8c1.6,0,2.1,1.3,2.1,2.8c0,1.5-0.6,2.8-2.1,2.8
		C207.8,125.8,207.4,124.2,207.4,123z M211.7,120.5c0,0.1-0.2-0.3-0.2-0.4c-0.5-0.7-1.3-1-2-1c-2.3,0-3.6,1.7-3.6,3.9
		c0,2.2,0.9,3.8,3.3,3.8c0.9,0,2.1-0.4,2.5-1.3h0c0,1.7,0,3.4-2.1,3.4c-1,0-1.7-0.4-1.8-1.4h-1.5c0,1.8,1.2,2.5,2.8,2.5
		c2.8,0,4-1.1,4-3.9v-5.4c0-0.5,0-0.9,0.1-1.4h-1.5L211.7,120.5z"/>
	<path class="st0" d="M217.8,129.9h-1.5l1.2-3l-3.2-7.6h1.6l2.4,6l2.4-6h1.6L217.8,129.9z"/>
	<path class="st0" d="M233.4,124c0,2-1.4,3.2-3.3,3.2c-2.1,0-3.3-1.1-3.3-3.1h1.6c0.1,1.3,0.9,1.8,1.7,1.8c0.9,0,1.6-0.5,1.7-1.8
		l0-8h1.5V124z"/>
	<path class="st0" d="M240.2,119.4h1.5v7.6h-1.4v-1.1h0c-0.6,1-1.6,1.4-2.6,1.4c-1.6,0-2.5-1.2-2.5-2.8v-5.1h1.4v4.5
		c0,1.3,0.3,2.3,1.7,2.3c0.6,0,1.4-0.3,1.7-1.1c0.3-0.7,0.3-1.6,0.3-1.8V119.4z"/>
	<path class="st0" d="M244.7,120.5L244.7,120.5c0.5-1,1.6-1.4,2.3-1.4c0.5,0,2.9,0.1,2.9,2.6v5.3h-1.4v-4.8c0-1.3-0.5-1.9-1.8-1.9
		c0,0-0.8,0-1.4,0.6c-0.2,0.2-0.6,0.6-0.6,2v4.2h-1.4v-7.6h1.4V120.5z"/>
	<path class="st0" d="M251.6,127v-7.6h1.4v7.6H251.6z M251.4,116h1.7v1.6h-1.7V116z"/>
	<path class="st0" d="M256.3,123.2c0-1.6,0.6-3,2.3-3c1.7,0,2.3,1.4,2.3,3c0,1.6-0.6,3-2.3,3C256.8,126.2,256.3,124.8,256.3,123.2z
		 M258.6,119.1c-2.5,0-3.8,1.7-3.8,4.1c0,2.4,1.3,4,3.8,4c2.5,0,3.8-1.7,3.8-4C262.4,120.8,261.1,119.1,258.6,119.1z"/>
	<path class="st0" d="M265.4,127h-1.4v-7.6h1.4v1.5h0c0.2-1.1,1.2-1.6,2.2-1.6c0.2,0,0.3,0,0.5,0v1.4c-0.2-0.1-0.4-0.1-0.6-0.1
		c-1.8,0.1-2.1,1-2.1,2.6V127z"/>
	<path class="st0" d="M280.4,118.8c-0.1-1.1-1.2-1.8-2.3-1.8c-2.7,0-3.2,2.5-3.2,4.4c0,2.3,0.7,4.4,3.1,4.4c1.2,0,2.2-0.6,2.4-1.8
		h1.6c-0.2,1.8-2,3.1-4.2,3.1c-3.2,0-4.5-2.6-4.5-5.7c0-2.7,1.2-5.8,4.9-5.7c2.1,0.1,3.7,1.1,3.9,3.1H280.4z"/>
	<path class="st0" d="M284.4,123.2c0-1.6,0.6-3,2.3-3c1.7,0,2.3,1.4,2.3,3c0,1.6-0.6,3-2.3,3C285,126.2,284.4,124.8,284.4,123.2z
		 M286.7,119.1c-2.5,0-3.8,1.7-3.8,4.1c0,2.4,1.3,4,3.8,4c2.5,0,3.8-1.7,3.8-4C290.5,120.8,289.2,119.1,286.7,119.1z"/>
	<path class="st0" d="M291.7,127v-11h1.4v11H291.7z"/>
	<path class="st0" d="M295.1,127v-11h1.4v11H295.1z"/>
	<path class="st0" d="M299.5,122.5c0-1.3,0.7-2.3,1.9-2.3c1.4,0,2,1,1.9,2.3H299.5z M304.9,123.5v-0.7c0-2.1-1.1-3.6-3.4-3.6
		c-2.4,0-3.5,1.9-3.5,4.1c0,2.3,1,4,3.4,4c1.8,0,3.2-0.9,3.4-2.6h-1.5c-0.2,1.1-0.7,1.6-1.9,1.6c-1.5,0-2-1.4-1.9-2.7H304.9z"/>
	<path class="st0" d="M307.7,123c0-1.2,0.5-2.8,2.2-2.8c1.6,0,2.1,1.3,2.1,2.8c0,1.5-0.6,2.8-2.1,2.8
		C308.1,125.8,307.7,124.2,307.7,123z M312,120.5c0,0.1-0.2-0.3-0.2-0.4c-0.5-0.7-1.3-1-2-1c-2.3,0-3.5,1.7-3.5,3.9
		c0,2.2,0.9,3.8,3.3,3.8c0.9,0,2.1-0.4,2.5-1.3h0c0,1.7,0,3.4-2.1,3.4c-1,0-1.7-0.4-1.8-1.4h-1.5c0,1.8,1.2,2.5,2.8,2.5
		c2.8,0,4-1.1,4-3.9v-5.4c0-0.5,0-0.9,0.1-1.4H312L312,120.5z"/>
	<path class="st0" d="M316.5,122.5c0-1.3,0.7-2.3,1.9-2.3c1.4,0,2,1,2,2.3H316.5z M321.9,123.5v-0.7c0-2.1-1.1-3.6-3.4-3.6
		c-2.4,0-3.5,1.9-3.5,4.1c0,2.3,1,4,3.4,4c1.8,0,3.2-0.9,3.4-2.6h-1.5c-0.2,1.1-0.7,1.6-1.9,1.6c-1.5,0-2-1.4-1.9-2.7H321.9z"/>
	<path class="st0" d="M6.9,127.2V112h3.8v15.2H6.9z"/>
	<path class="st0" d="M12.4,127.2V112h3.8v15.2H12.4z"/>
	<path class="st0" d="M21.9,114.9h-4.2V112h12.4v2.9h-4.3v12.2h-3.8V114.9z"/>
</g>
<g>
</g>
<g>
</g>
<g>
</g>
<g>
</g>
<g>
</g>
<g>
</g>
<g>
</g>
<g>
</g>
<g>
</g>
<g>
</g>
<g>
</g>
<g>
</g>
<g>
</g>
<g>
</g>
<g>
</g>
</svg>
