<?xml version="1.0" encoding="utf-8"?>
<!-- Generator: Adobe Illustrator 26.0.2, SVG Export Plug-In . SVG Version: 6.00 Build 0)  -->
<svg version="1.1" id="レイヤー_1" xmlns="http://www.w3.org/2000/svg" xmlns:xlink="http://www.w3.org/1999/xlink" x="0px"
	 y="0px" viewBox="0 0 300 300" style="enable-background:new 0 0 300 300;" xml:space="preserve">
<style type="text/css">
	.st0{fill:none;stroke:#004D9F;stroke-width:3;stroke-linecap:round;stroke-miterlimit:10;}
	.st1{fill:#FFFFFF;stroke:#004DA0;stroke-width:3;stroke-linecap:round;stroke-linejoin:round;}
	.st2{fill:none;stroke:#004DA0;stroke-width:3;stroke-linecap:round;stroke-linejoin:round;}
	.st3{fill:#004DA0;}
</style>
<g id="落書きの人" transform="translate(197.427 34.414) rotate(135)">
	<path id="パス_536" class="st0" d="M104.8-215.8C65.1-215.8,2.2-158.2-4.7-75l15,15c13.3-20.2,79.4-83.9,105.4-85.5"/>
	<path id="パス_537" class="st1" d="M10.6-60c0,0,3.6,15.2-8.1,20.7s-5.7-12.2-5.7-12.2"/>
	<path id="パス_538" class="st2" d="M-6.8-48.3l-14.4-18.9l-12.1,10.8l28.5,36.9L7-30.1l-7.4-8.3"/>
	<path id="パス_539" class="st2" d="M-4.8-19.6l13.9,7.1L7-30.1L-4.8-19.6z"/>
	<path id="パス_540" class="st2" d="M-4.8-77.3c0,0-12.1,2-15.2,9.3"/>
	<path id="パス_541" class="st2" d="M-29.9-48.5c0,0-5.4,19.5,12.2,15.8"/>
	<path id="パス_542" class="st2" d="M172.8-16.6c0,0-20.7,58.3-59.4,71.6l18.1,20.3c0,0,87.5,1.9,126.3-65.1
		c0,0,5.7-11.2,5.2-30.2"/>
	<path id="パス_543" class="st1" d="M128.5-166.3c0,0-56.2,6.3-78.8,62.1c-10.4,25.7-12,53.7,13.4,82.6s58.6,35.9,86.8,27.6
		c69.2-20.3,70.5-72.5,70.5-72.5"/>
	<path id="パス_544" class="st2" d="M58.5-117.4l16.5,18c0,0,2.7,3.6,8,0.9l9-3.1c-1.8,3.4-3.2,7-4,10.7c-0.6,3,0.3,6.2,2.4,8.5
		l75.5,82.8"/>
	<path id="パス_545" class="st2" d="M113.3,55c0,0-24.1,0.5-21.7,8.6c0,0-5.1,8.4,1.5,9.4c0,0,0,10.2,7.1,9.6c0,0,3.3,9.4,8.4,7.7
		c0,0,19.4,0.3,22.9-15.1"/>
	
		<ellipse id="楕円形_45" transform="matrix(0.7364 -0.6765 0.6765 0.7364 57.0077 39.1419)" class="st3" cx="78.7" cy="-53.6" rx="5.5" ry="5.6"/>
	
		<ellipse id="楕円形_46" transform="matrix(0.7364 -0.6765 0.6765 0.7364 42.9777 70.8846)" class="st3" cx="112.5" cy="-19.7" rx="5.5" ry="5.6"/>
</g>
<g>
</g>
<g>
</g>
<g>
</g>
<g>
</g>
<g>
</g>
<g>
</g>
<g>
</g>
<g>
</g>
<g>
</g>
<g>
</g>
<g>
</g>
<g>
</g>
<g>
</g>
<g>
</g>
<g>
</g>
</svg>
