<?xml version="1.0" encoding="utf-8"?>
<!-- Generator: Adobe Illustrator 26.0.2, SVG Export Plug-In . SVG Version: 6.00 Build 0)  -->
<svg version="1.1" id="レイヤー_1" xmlns="http://www.w3.org/2000/svg" xmlns:xlink="http://www.w3.org/1999/xlink" x="0px"
	 y="0px" viewBox="0 0 300 300" style="enable-background:new 0 0 300 300;" xml:space="preserve">
<style type="text/css">
	.st0{fill:none;stroke:#004EA2;stroke-width:2.5;stroke-linecap:round;stroke-linejoin:round;stroke-miterlimit:10;}
	.st1{fill:#004DA0;}
</style>
<g id="びっくり箱のひと_00000049206272034901438300000000032130367031555481_">
	<path class="st0" d="M43.2,284.9c4.8-11.9,13.4-25.6,28.6-30.1c3.1-0.9,6.2-2.2,9.2-3.5l30.9-13.7c7-3.1,12.7-8.9,15.6-16.1
		c2-5.1,3.6-11.6,3.2-18.8c-0.4-7.4-4.1-14.3-9.9-18.7c-11.4-8.6-33.4-31.5-27.3-77c0,0,6-83.3,63-80.2c0,0,61.4,2.1,61.3,74.9
		c0,0,0.6,65.4-29.2,82.9c-8.9,5.2-12.6,16.3-9.1,26c1.4,4,3.7,8.2,7.2,12.6c0,0,41.1,22,50.3,19.6c0,0,9.1,1.1,17.3,7.4"/>
	<path class="st0" d="M97.1,86.7c0,0,29.7,7.5,44.7-35c0,0,24.3,25.7,39.6,8.8c0,0,19,31.1,35,24.2"/>
	<path class="st0" d="M94.3,99.3c0,0-11.9-11.4-15.7,4.3c0,0-3.4,18,2.4,21.8c0,0,5.9,5,11.4-1.8"/>
	<path class="st0" d="M217.7,113.5c0,0,9.1-9,14.3-3c0,0,9,8.1-1.5,26.9c0,0-7.1,12.3-16-0.4"/>
	
		<ellipse transform="matrix(0.2167 -0.9762 0.9762 0.2167 -8.8901 212.1983)" class="st1" cx="127.8" cy="111.6" rx="4.7" ry="4.7"/>
	<ellipse transform="matrix(0.2167 -0.9762 0.9762 0.2167 24.4802 266.4906)" class="st1" cx="178.3" cy="118" rx="4.7" ry="4.7"/>
	<path class="st0" d="M252.9,39c0,0-1.3,10.7-10.6,13.4c0,0,5.3,1.8,5,12c0,0,2.3-10.4,9.6-8.7C256.8,55.7,251,47.4,252.9,39z"/>
	<path class="st0" d="M58.9,2.9c0,0,0.8,11.9-7.8,15.2c0,0,11.6,2.1,10.5,11.6c0,0,0.1-12.7,7.3-13.1C68.9,16.6,59.4,16,58.9,2.9z"
		/>
</g>
<g>
</g>
<g>
</g>
<g>
</g>
<g>
</g>
<g>
</g>
<g>
</g>
<g>
</g>
<g>
</g>
<g>
</g>
<g>
</g>
<g>
</g>
<g>
</g>
<g>
</g>
<g>
</g>
<g>
</g>
</svg>
