<?xml version="1.0" encoding="utf-8"?>
<!-- Generator: Adobe Illustrator 26.0.3, SVG Export Plug-In . SVG Version: 6.00 Build 0)  -->
<svg version="1.1" id="レイヤー_1" xmlns="http://www.w3.org/2000/svg" xmlns:xlink="http://www.w3.org/1999/xlink" x="0px"
	 y="0px" viewBox="0 0 800 435" style="enable-background:new 0 0 800 435;" xml:space="preserve">
<style type="text/css">
	.st0{fill:#E95513;}
	.st1{fill:none;stroke:#E95513;stroke-width:3;}
	.st2{fill:#FFFFFF;}
	.st3{fill:#004EA2;}
	.st4{fill:#EA5514;}
	.st5{fill:none;stroke:#004EA2;stroke-width:3.4226;stroke-miterlimit:10;}
	.st6{fill:#004DA0;stroke:#004DA0;stroke-width:2;stroke-miterlimit:10;}
	.st7{fill:#FFFFFF;stroke:#E95513;stroke-width:1.5;stroke-miterlimit:10;}
	.st8{fill:none;stroke:#004DA0;stroke-width:1.4173;stroke-miterlimit:10;}
</style>
<g id="レイヤー_1_00000121268907183294852960000017663031636942871226_">
	<g>
		<g>
			<path class="st0" d="M537.5,365.4c-8.9-5.7-15.5-13.6-19-25.2c-4.1,11.2-12.3,20.3-20.2,25.2l-4.4-5.8c8.9-5,17.5-15.1,20.4-27.5
				l2.4,0.6c-0.3-1.9-0.6-3.9-0.8-6h-13V320h19.4c0.6,21.1,8.5,32.5,20.2,39.3L537.5,365.4z"/>
			<path class="st0" d="M574.7,343.4c-0.5,0.9-1.1,1.8-1.8,2.7h19.7v12.4c0,5.3-2.4,7-6.5,7h-3.9l-1.7-5c-1.8,2.1-3.8,4.1-5.9,5.6
				l-3.4-3.2c4.1-2.5,8.3-7.9,10.4-12.1h-4c-2.7,4.7-8.2,10-13.9,13l-2.9-3.7c4.4-1.8,9.2-5.6,12-9.3h-4.1c-1.7,1.5-3.6,2.9-5.7,4.1
				l-2.8-3.6l0.1,2.8c-3.2,1.6-7.1,2.9-10.7,4c-1.2,0.4-2.4,1.1-2.8,1.7l-1.3-6.5c1.3-0.3,3.2-0.8,5.1-1.4v-16h-4.5V330h4.5v-11.5
				h6.7c-0.6,0.6-0.8,1.6-0.8,4.3v7.1h4.5v5.8h-4.5v13.9c1.3-0.5,2.6-1,3.6-1.5l0.1,2.7c3.8-1.7,7.2-4.7,9.1-7.4h-8v-4.7h32.3v4.7
				H574.7z M563.7,336.4V319h26.6v17.4H563.7z M584.6,322.6h-15.1v3.3h15.1V322.6z M584.6,329.5h-15.1v3.3h15.1V329.5z M587.5,350.7
				h-1.4c-1.2,3.3-3.1,6.5-5.4,9.4c1.2,0.2,3.7,0.4,4.5,0.4c1.7,0,2.3-0.5,2.3-2.9L587.5,350.7L587.5,350.7z"/>
			<path class="st0" d="M607.6,358.8c-1.7,2.9-3.4,5.4-5.2,7.5l-5-3.6c2.1-2,5.1-5.9,6.5-9.2l6.1,2.6
				C609.1,356.4,608.6,357,607.6,358.8z M639,340.6v7.1h4.2v5.1h-43.6v-5.1h4.7v-7.1h-6.6v-5.1h6.6v-4.8c-1,0.7-2.1,1.4-3.1,2
				l-3.2-5.2c4.8-2.2,8.9-6.3,10.3-9.7l7,1.6c-1.1,0.2-2.4,2.7-3.2,3.6h31.1v5.1H639v7.3h6.2v5.1H639V340.6z M614.2,328.1h-4.9v7.3
				h4.9V328.1z M614.2,340.6h-4.9v7.1h4.9V340.6z M613.4,366l-0.8-10.6l5.3-0.4l1.2,10.6L613.4,366z M624,328.1h-4.8v7.3h4.8V328.1z
				 M624,340.6h-4.8v7.1h4.8V340.6z M626.3,365.7l-2.6-10.4l5.2-1.1l3.1,10.1L626.3,365.7z M634,328.1h-4.8v7.3h4.8V328.1z
				 M634,340.6h-4.8v7.1h4.8V340.6z M640.8,366.2l-6.5-10.4l4.6-2.5l6.8,9.6L640.8,366.2z"/>
			<path class="st0" d="M670.4,325.8l-3.3,7.3l-3.6-1.4v2.7h7.3v5.6h-7.3v1.7l8.9,9.2l-3.6,4.2l-5.3-6.6v17.1h-5.7V350
				c-1.9,3.8-4.2,7.3-6.3,9.7l-3.3-5.2c3.5-3.3,7.7-9.6,9.1-14.4h-8v-5.6h8.5v-16.3h6.5c-0.7,0.6-0.8,1.6-0.8,4.3v9l4.4-10l4.7,2
				C671.6,323.5,671.1,324.3,670.4,325.8z M653.4,333.1c-0.8-2.9-2.7-7.9-3.9-10.2l3.9-1.4c1.2,2.3,3.3,7.9,3.9,10.3L653.4,333.1z
				 M692.1,352.2v13.2h-5.8v-12.3l-13,2.2l-0.8-6.1l13.8-2.4V328l-2.8,4.7l-8.8-5.2l2.9-4.7l8.7,5v-9.4h6.7c-0.7,0.6-0.9,1.5-0.9,5
				V346l4.5-0.8l0.8,6.2L692.1,352.2z M681.7,343.8l-9-5.1l2.8-4.8l9,4.8L681.7,343.8z"/>
		</g>
		<g>
			<path class="st1" d="M537.5,365.4c-8.9-5.7-15.5-13.6-19-25.2c-4.1,11.2-12.3,20.3-20.2,25.2l-4.4-5.8c8.9-5,17.5-15.1,20.4-27.5
				l2.4,0.6c-0.3-1.9-0.6-3.9-0.8-6h-13V320h19.4c0.6,21.1,8.5,32.5,20.2,39.3L537.5,365.4z"/>
			<path class="st1" d="M574.7,343.4c-0.5,0.9-1.1,1.8-1.8,2.7h19.7v12.4c0,5.3-2.4,7-6.5,7h-3.9l-1.7-5c-1.8,2.1-3.8,4.1-5.9,5.6
				l-3.4-3.2c4.1-2.5,8.3-7.9,10.4-12.1h-4c-2.7,4.7-8.2,10-13.9,13l-2.9-3.7c4.4-1.8,9.2-5.6,12-9.3h-4.1c-1.7,1.5-3.6,2.9-5.7,4.1
				l-2.8-3.6l0.1,2.8c-3.2,1.6-7.1,2.9-10.7,4c-1.2,0.4-2.4,1.1-2.8,1.7l-1.3-6.5c1.3-0.3,3.2-0.8,5.1-1.4v-16h-4.5V330h4.5v-11.5
				h6.7c-0.6,0.6-0.8,1.6-0.8,4.3v7.1h4.5v5.8h-4.5v13.9c1.3-0.5,2.6-1,3.6-1.5l0.1,2.7c3.8-1.7,7.2-4.7,9.1-7.4h-8v-4.7h32.3v4.7
				H574.7z M563.7,336.4V319h26.6v17.4H563.7z M584.6,322.6h-15.1v3.3h15.1V322.6z M584.6,329.5h-15.1v3.3h15.1V329.5z M587.5,350.7
				h-1.4c-1.2,3.3-3.1,6.5-5.4,9.4c1.2,0.2,3.7,0.4,4.5,0.4c1.7,0,2.3-0.5,2.3-2.9L587.5,350.7L587.5,350.7z"/>
			<path class="st1" d="M607.6,358.8c-1.7,2.9-3.4,5.4-5.2,7.5l-5-3.6c2.1-2,5.1-5.9,6.5-9.2l6.1,2.6
				C609.1,356.4,608.6,357,607.6,358.8z M639,340.6v7.1h4.2v5.1h-43.6v-5.1h4.7v-7.1h-6.6v-5.1h6.6v-4.8c-1,0.7-2.1,1.4-3.1,2
				l-3.2-5.2c4.8-2.2,8.9-6.3,10.3-9.7l7,1.6c-1.1,0.2-2.4,2.7-3.2,3.6h31.1v5.1H639v7.3h6.2v5.1H639V340.6z M614.2,328.1h-4.9v7.3
				h4.9V328.1z M614.2,340.6h-4.9v7.1h4.9V340.6z M613.4,366l-0.8-10.6l5.3-0.4l1.2,10.6L613.4,366z M624,328.1h-4.8v7.3h4.8V328.1z
				 M624,340.6h-4.8v7.1h4.8V340.6z M626.3,365.7l-2.6-10.4l5.2-1.1l3.1,10.1L626.3,365.7z M634,328.1h-4.8v7.3h4.8V328.1z
				 M634,340.6h-4.8v7.1h4.8V340.6z M640.8,366.2l-6.5-10.4l4.6-2.5l6.8,9.6L640.8,366.2z"/>
			<path class="st1" d="M670.4,325.8l-3.3,7.3l-3.6-1.4v2.7h7.3v5.6h-7.3v1.7l8.9,9.2l-3.6,4.2l-5.3-6.6v17.1h-5.7V350
				c-1.9,3.8-4.2,7.3-6.3,9.7l-3.3-5.2c3.5-3.3,7.7-9.6,9.1-14.4h-8v-5.6h8.5v-16.3h6.5c-0.7,0.6-0.8,1.6-0.8,4.3v9l4.4-10l4.7,2
				C671.6,323.5,671.1,324.3,670.4,325.8z M653.4,333.1c-0.8-2.9-2.7-7.9-3.9-10.2l3.9-1.4c1.2,2.3,3.3,7.9,3.9,10.3L653.4,333.1z
				 M692.1,352.2v13.2h-5.8v-12.3l-13,2.2l-0.8-6.1l13.8-2.4V328l-2.8,4.7l-8.8-5.2l2.9-4.7l8.7,5v-9.4h6.7c-0.7,0.6-0.9,1.5-0.9,5
				V346l4.5-0.8l0.8,6.2L692.1,352.2z M681.7,343.8l-9-5.1l2.8-4.8l9,4.8L681.7,343.8z"/>
		</g>
		<g>
			<path class="st2" d="M537.5,365.4c-8.9-5.7-15.5-13.6-19-25.2c-4.1,11.2-12.3,20.3-20.2,25.2l-4.4-5.8c8.9-5,17.5-15.1,20.4-27.5
				l2.4,0.6c-0.3-1.9-0.6-3.9-0.8-6h-13V320h19.4c0.6,21.1,8.5,32.5,20.2,39.3L537.5,365.4z"/>
			<path class="st2" d="M574.7,343.4c-0.5,0.9-1.1,1.8-1.8,2.7h19.7v12.4c0,5.3-2.4,7-6.5,7h-3.9l-1.7-5c-1.8,2.1-3.8,4.1-5.9,5.6
				l-3.4-3.2c4.1-2.5,8.3-7.9,10.4-12.1h-4c-2.7,4.7-8.2,10-13.9,13l-2.9-3.7c4.4-1.8,9.2-5.6,12-9.3h-4.1c-1.7,1.5-3.6,2.9-5.7,4.1
				l-2.8-3.6l0.1,2.8c-3.2,1.6-7.1,2.9-10.7,4c-1.2,0.4-2.4,1.1-2.8,1.7l-1.3-6.5c1.3-0.3,3.2-0.8,5.1-1.4v-16h-4.5V330h4.5v-11.5
				h6.7c-0.6,0.6-0.8,1.6-0.8,4.3v7.1h4.5v5.8h-4.5v13.9c1.3-0.5,2.6-1,3.6-1.5l0.1,2.7c3.8-1.7,7.2-4.7,9.1-7.4h-8v-4.7h32.3v4.7
				H574.7z M563.7,336.4V319h26.6v17.4H563.7z M584.6,322.6h-15.1v3.3h15.1V322.6z M584.6,329.5h-15.1v3.3h15.1V329.5z M587.5,350.7
				h-1.4c-1.2,3.3-3.1,6.5-5.4,9.4c1.2,0.2,3.7,0.4,4.5,0.4c1.7,0,2.3-0.5,2.3-2.9L587.5,350.7L587.5,350.7z"/>
			<path class="st2" d="M607.6,358.8c-1.7,2.9-3.4,5.4-5.2,7.5l-5-3.6c2.1-2,5.1-5.9,6.5-9.2l6.1,2.6
				C609.1,356.4,608.6,357,607.6,358.8z M639,340.6v7.1h4.2v5.1h-43.6v-5.1h4.7v-7.1h-6.6v-5.1h6.6v-4.8c-1,0.7-2.1,1.4-3.1,2
				l-3.2-5.2c4.8-2.2,8.9-6.3,10.3-9.7l7,1.6c-1.1,0.2-2.4,2.7-3.2,3.6h31.1v5.1H639v7.3h6.2v5.1H639V340.6z M614.2,328.1h-4.9v7.3
				h4.9V328.1z M614.2,340.6h-4.9v7.1h4.9V340.6z M613.4,366l-0.8-10.6l5.3-0.4l1.2,10.6L613.4,366z M624,328.1h-4.8v7.3h4.8V328.1z
				 M624,340.6h-4.8v7.1h4.8V340.6z M626.3,365.7l-2.6-10.4l5.2-1.1l3.1,10.1L626.3,365.7z M634,328.1h-4.8v7.3h4.8V328.1z
				 M634,340.6h-4.8v7.1h4.8V340.6z M640.8,366.2l-6.5-10.4l4.6-2.5l6.8,9.6L640.8,366.2z"/>
			<path class="st2" d="M670.4,325.8l-3.3,7.3l-3.6-1.4v2.7h7.3v5.6h-7.3v1.7l8.9,9.2l-3.6,4.2l-5.3-6.6v17.1h-5.7V350
				c-1.9,3.8-4.2,7.3-6.3,9.7l-3.3-5.2c3.5-3.3,7.7-9.6,9.1-14.4h-8v-5.6h8.5v-16.3h6.5c-0.7,0.6-0.8,1.6-0.8,4.3v9l4.4-10l4.7,2
				C671.6,323.5,671.1,324.3,670.4,325.8z M653.4,333.1c-0.8-2.9-2.7-7.9-3.9-10.2l3.9-1.4c1.2,2.3,3.3,7.9,3.9,10.3L653.4,333.1z
				 M692.1,352.2v13.2h-5.8v-12.3l-13,2.2l-0.8-6.1l13.8-2.4V328l-2.8,4.7l-8.8-5.2l2.9-4.7l8.7,5v-9.4h6.7c-0.7,0.6-0.9,1.5-0.9,5
				V346l4.5-0.8l0.8,6.2L692.1,352.2z M681.7,343.8l-9-5.1l2.8-4.8l9,4.8L681.7,343.8z"/>
		</g>
	</g>
	<g>
		<g>
			<path class="st3" d="M110.3,296.2h7.4v2.8h-13.3l6.9-8.3c0.7-0.8,1.2-1.5,1.7-2.2s0.8-1.1,1-1.5c0.5-0.8,0.7-1.5,0.7-2.2
				c0-0.9-0.3-1.7-1-2.3s-1.5-0.9-2.4-0.9c-2,0-3.1,1.2-3.4,3.5h-3c0.5-4.2,2.6-6.3,6.3-6.3c1.8,0,3.3,0.6,4.5,1.7s1.8,2.6,1.8,4.3
				c0,1.1-0.3,2.1-0.9,3.2c-0.3,0.5-0.7,1.2-1.3,1.9s-1.3,1.6-2.1,2.6L110.3,296.2z"/>
			<path class="st3" d="M121,289c0-3.2,0.7-5.7,2.2-7.5c1.3-1.7,2.9-2.5,4.8-2.5c1.9,0,3.5,0.9,4.8,2.5c1.5,1.9,2.2,4.4,2.2,7.7
				c0,3.2-0.7,5.8-2.2,7.7c-1.3,1.7-2.9,2.6-4.8,2.6c-1.9,0-3.5-0.8-4.8-2.6C121.7,294.9,121,292.3,121,289z M123.9,289
				c0,2.2,0.4,4,1.1,5.5c0.8,1.4,1.7,2.1,2.9,2.1s2.1-0.7,2.9-2.1s1.2-3.2,1.2-5.4c0-2.2-0.4-4-1.2-5.4s-1.7-2.1-2.9-2.1
				s-2.1,0.7-2.9,2.1C124.3,285.1,123.9,286.9,123.9,289z"/>
			<path class="st3" d="M142.7,296.2h7.4v2.8h-13.3l6.9-8.3c0.7-0.8,1.2-1.5,1.7-2.2s0.8-1.1,1-1.5c0.5-0.8,0.7-1.5,0.7-2.2
				c0-0.9-0.3-1.7-1-2.3s-1.5-0.9-2.4-0.9c-2,0-3.1,1.2-3.4,3.5h-3c0.5-4.2,2.6-6.3,6.3-6.3c1.8,0,3.3,0.6,4.5,1.7s1.8,2.6,1.8,4.3
				c0,1.1-0.3,2.1-0.9,3.2c-0.3,0.5-0.7,1.2-1.3,1.9s-1.3,1.6-2.1,2.6L142.7,296.2z"/>
			<path class="st3" d="M158.9,296.2h7.4v2.8H153l6.9-8.3c0.7-0.8,1.2-1.5,1.7-2.2s0.8-1.1,1-1.5c0.5-0.8,0.7-1.5,0.7-2.2
				c0-0.9-0.3-1.7-1-2.3s-1.5-0.9-2.4-0.9c-2,0-3.1,1.2-3.4,3.5h-3c0.5-4.2,2.6-6.3,6.3-6.3c1.8,0,3.3,0.6,4.5,1.7s1.8,2.6,1.8,4.3
				c0,1.1-0.3,2.1-0.9,3.2c-0.3,0.5-0.7,1.2-1.3,1.9s-1.3,1.6-2.1,2.6L158.9,296.2z"/>
		</g>
		<g>
			<path class="st3" d="M118.6,360c2.3,1.5,7.6,3.8,13.2,3.8c10.4,0,13.6-6.6,13.5-11.6c-0.1-8.4-7.6-11.9-15.4-11.9h-4.5v-6.1h4.5
				c5.9,0,13.3-3,13.3-10.1c0-4.8-3-9-10.5-9c-4.8,0-9.4,2.1-11.9,3.9l-2.1-5.9c3.1-2.3,9.2-4.6,15.6-4.6c11.7,0,17.1,7,17.1,14.2
				c0,6.1-3.7,11.4-11,14v0.2c7.3,1.5,13.3,7,13.3,15.3c0,9.5-7.4,17.9-21.8,17.9c-6.7,0-12.6-2.1-15.5-4L118.6,360z"/>
		</g>
		<g id="_xFF15_">
			<g>
				<path class="st4" d="M286.7,300.9h-30.3l-1.5,9.6c1.4-0.2,2.7-0.3,3.8-0.4c1.2-0.1,2.4-0.2,3.6-0.2c4.4,0,8.5,0.8,12.3,2.3
					c3.8,1.6,7.1,3.7,9.8,6.4c2.7,2.7,4.8,6,6.4,9.8c1.5,3.8,2.3,7.9,2.3,12.4c0,4.7-0.9,9-2.6,12.8s-4.2,7-7.4,9.7
					c-3.2,2.7-7.1,4.7-11.6,6.2c-4.6,1.4-9.6,2.2-15.2,2.2c-5.3,0-10.3-0.6-15.1-1.9s-9.2-3.2-13.4-5.9l3.4-21.4
					c3.9,3.3,7.8,5.9,11.9,7.6c4,1.7,7.9,2.6,11.5,2.6c4.6,0,8.3-1.3,11-3.8s4.1-5.6,4.1-9.4c0-4.3-1.8-7.8-5.5-10.5
					c-3.6-2.7-8.4-4-14.3-4c-2.6,0-5.3,0.3-8.1,0.9s-5.5,1.5-8.3,2.7l7.3-47.1h45.9L286.7,300.9L286.7,300.9z"/>
			</g>
			<circle class="st3" cx="294.3" cy="359.8" r="14.3"/>
			<g>
				<path class="st2" d="M292.8,353.3c0-0.8,0-1.5-0.1-2.1h2.7c-0.1,0.6-0.1,1.3-0.1,2.1v2.9h3.2c1,0,1.7,0,2.4-0.1v2.4
					c-0.8-0.1-1.4-0.1-2.4-0.1h-3.2v6h4.2c1.1,0,2,0,2.6-0.1v2.4c-0.7-0.1-1.6-0.1-2.6-0.1h-10.6c-1.1,0-1.9,0-2.7,0.1v-2.4
					c0.7,0.1,1.6,0.1,2.7,0.1h3.9v-6h-2.9c-1,0-1.7,0-2.4,0.1v-2.4c0.7,0.1,1.5,0.1,2.4,0.1h2.9V353.3z"/>
			</g>
		</g>
		<g id="_xFF16_">
			<g>
				<path class="st4" d="M392.5,281.6l-24.9,28.6h0.5c2.2-1.3,4-2.1,5.3-2.4c1.4-0.3,2.6-0.4,3.7-0.4c4.3,0,8.2,0.8,11.7,2.4
					c3.6,1.6,6.7,3.9,9.3,6.7c2.6,2.8,4.7,6.1,6.2,9.9s2.2,7.9,2.2,12.2c0,4.6-0.9,9-2.6,13s-4.2,7.5-7.4,10.5
					c-3.2,3-7.1,5.3-11.7,7s-9.7,2.6-15.5,2.6s-11-0.9-15.6-2.6s-8.5-4-11.7-7c-3.2-2.9-5.7-6.4-7.4-10.3c-1.7-3.9-2.6-8.1-2.6-12.5
					c0-5,1.1-10.3,3.3-16.1c2.2-5.8,5.6-11.4,10.2-17l20.3-24.6L392.5,281.6L392.5,281.6z M354.8,339.1c0,2,0.4,3.9,1.2,5.6
					c0.8,1.7,1.8,3.3,3.1,4.6c1.3,1.3,2.8,2.4,4.6,3.1c1.7,0.8,3.6,1.2,5.6,1.2s3.9-0.4,5.6-1.2c1.7-0.8,3.3-1.8,4.6-3.1
					c1.3-1.3,2.4-2.8,3.1-4.6c0.8-1.7,1.2-3.6,1.2-5.6s-0.4-3.9-1.2-5.6c-0.8-1.7-1.8-3.3-3.1-4.6c-1.3-1.3-2.8-2.4-4.6-3.1
					c-1.7-0.8-3.6-1.2-5.6-1.2s-3.9,0.4-5.6,1.2c-1.7,0.8-3.3,1.8-4.6,3.1c-1.3,1.3-2.4,2.8-3.1,4.6
					C355.2,335.2,354.8,337.1,354.8,339.1z"/>
			</g>
			<g>
				<g>
					<circle class="st3" cx="404.2" cy="359.2" r="14.3"/>
				</g>
				<g>
					<path class="st2" d="M408.2,351.2c0.8,0,1.4,0,1.9-0.1c-0.1,0.7-0.1,1.3-0.1,1.9v11.3c0,0.9,0,1.6,0.1,2.2h-2.5v-1H400v1h-2.5
						c0.1-0.7,0.1-1.4,0.1-2.2V353c0-0.7,0-1.3-0.1-1.9c0.6,0.1,1.2,0.1,2,0.1H408.2z M407.7,357.1v-3.7H400v3.7H407.7z M400,359.3
						v4.1h7.7v-4.1H400z"/>
				</g>
			</g>
		</g>
		<line class="st5" x1="202.3" y1="281.3" x2="179.9" y2="370"/>
	</g>
	<g>
		<path class="st6" d="M100.2,153.6h110.1c0.7,0,1.3-0.5,1.3-1.3V139c0-0.7-0.6-1.3-1.3-1.3h-31.1v-15.3h27c0.7,0,1.3-0.6,1.3-1.3
			v-12.4c0-0.7-0.6-1.3-1.3-1.3h-50.6V89c0-1.4-1.5-1.3-1.5-1.3C137.2,89.6,137,98.4,137,98.4v9H78.1c-0.7,0-1.3,0.6-1.3,1.3v12.4
			c0,0.7,0.6,1.3,1.3,1.3h34.1v15.3H88.6c-11.6-0.1-12.9,13.1-12.9,13.1l-13.1,85c0,0.8,0.6,1.3,1.3,1.3h16.2c0.7,0,1.3-0.6,1.3-1.3
			c0,0.1,12-77.2,12-77.2C94.1,154.5,96.3,153.6,100.2,153.6z M129.6,122.5H162v15.3h-32.4V122.5L129.6,122.5z M211.5,221.4H159
			v-10.2h37.7c0.7,0,1.3-0.6,1.3-1.3V198c0-0.7-0.6-1.3-1.3-1.3H159V185h40.9c0.7,0,1.3-0.6,1.3-1.3v-12.1c0-0.7-0.6-1.3-1.3-1.3
			c0,0-39.7,0-40.8,0v-12.4c0-1.4-1.5-1.3-1.5-1.3c-13.2,1.7-14.2,10.7-14.2,10.7v3h-26.7l1.4-8.6c0-0.9-0.7-1.4-1.4-1.4
			c-6-0.4-13.2,3.2-14.4,9.1l-3.1,19.8c-0.1,0.8,0.4,1.3,1.2,1.4h11.9c0.7,0,1.3-0.4,1.4-1.1l1-4.6h28.9v11.7h-33.2
			c-0.7,0-1.3,0.6-1.3,1.3v11.9c0,0.7,0.6,1.3,1.3,1.3h32.9v10.2H92.6c-0.7,0-1.3,0.6-1.3,1.2v13.1c0,0.7,0.6,1.3,1.3,1.3h118.9
			c0.7,0,1.3-0.6,1.3-1.3v-13.1C212.7,221.9,212.2,221.4,211.5,221.4z"/>
		<path class="st6" d="M391.1,234.9l-35.7-32.4c0,0,21.6-19.2,23.5-21.1c6.3-6.2,6.4-6.9,6.4-15.7c0-0.1,0-25.9,0-25.9
			c0-0.7-0.6-1.3-1.4-1.3h-32.1v-14.8h35.5c0.7,0,1.3-0.6,1.3-1.3V109c0-0.7-0.6-1.3-1.3-1.3h-35.6V89.1c0-1.4-1.5-1.3-1.5-1.3
			c-15.5,1.9-16,10.7-16,10.7v9.2h-29.9c-0.8,0-1.4,0.6-1.4,1.3v13.3c0,0.7,0.6,1.3,1.4,1.3h29.9v14.8h-28.9c-0.7,0-1.3,0.6-1.3,1.3
			v15c0,0.7,0.6,1.4,1.3,1.4H365c0.9,0,2.1,0,2.1,2.2v6.4c0,1.8-0.4,2.8-1.9,4.3c-1.1,1.1-23.5,21-23.5,21l-30.6-27.8
			c-1.2-1.1-2.1-0.3-2.1,0.5v22.7c0,0.6,0,1.2,0.7,1.8l17.5,15.7l-35.8,32c-1.8,1.6-0.1,2-0.1,2H316c0,0,1.1,0,1.5-0.4
			c-0.1,0.1,23.6-21,23.6-21l23.5,21c0.6,0.6,1.3,0.6,1.9,0.6h24.2C391.8,237.1,391.8,235.6,391.1,234.9z M297.2,156.4v-19.5
			c0-1.2-1.1-1.6-2.1-0.5l-12.2,13.1v-26.2h10.3c0.7,0,1.3-0.6,1.3-1.3v-13.3c0-0.7-0.6-1.3-1.3-1.3c0,0-9.1,0-10.3,0V89
			c0-1.4-1.5-1.3-1.5-1.3c-16,2-16.3,10.7-16.3,10.7v9h-25c-0.7,0-1.3,0.6-1.3,1.3V122c0,0.7,0.6,1.3,1.3,1.3h25.2v41l-30.7,29.4
			c-1.1,1-0.6,2,0.4,2h20.4c0.7,0,1.3,0,1.9-0.6l7.9-8v29.1l-9.5-7.3c-0.5-0.5-1.2-0.5-1.9-0.5h-19.9c-0.9,0-1.3,1.2-0.4,2l25.7,22
			c3.2,2.6,8.3,4.2,11.5,4.2h10.8c0.7,0,1.3-0.6,1.3-1.2V172l13.6-13.9C297.1,157.6,297.2,157,297.2,156.4z"/>
		<path class="st6" d="M480.4,109h-45.1l3.9-19.4c0,0,0.6-1.8-1.4-1.8c-9-0.3-16.3,7.7-17,13l0,0l-7.5,38.7c0,0.7,0,2.3,1.3,2.3
			l13.3,0.1c0.7,0,1.3-0.5,1.3-1.2c0,0.1,3.9-16.1,3.9-16.1h14.5l-6.6,27.1h-21.3c-0.7,0-1.3,0.5-1.3,1.2V168c0,0.7,0.6,1.2,1.3,1.2
			h16.6l-16.7,66.1c-0.4,1.8,1.2,1.8,1.2,1.8h16.3c0.7-0.1,1.2-0.4,1.4-1l7.7-31.5l15.6,22c0.5,0.6,1.2,0.7,1.8,0.3
			c-0.1,0,14.8-8.1,14.8-8.1c0.5-0.4,0.8-1.1,0.3-1.8l-26.4-35.9l3-11.8h25c0.7,0,1.3-0.6,1.3-1.2v-15.2c0-0.7-0.6-1.2-1.3-1.2
			h-20.4l6.4-27.1h14c0.7,0,1.3-0.6,1.3-1.3v-12.7C481.7,109.9,481.2,109,480.4,109z M488.7,118.4h77.6c0.7,0,1.3-0.6,1.3-1.3v-13.7
			c0-0.7-0.6-1.2-1.3-1.2h-77.6c-0.7,0-1.3,0.5-1.3,1.2v13.7C487.4,117.9,488,118.4,488.7,118.4z M568.6,219.4c0,0-23.6,0-25.7,0
			c1.2-1.7,14-20.8,14-20.8c4.2-5.4,6.3-11.8,6.3-19.1v-49.3c0-0.7-0.6-1.3-1.3-1.3h-59.1c-6.7,0-12,4.7-12,10.6v43.9
			c0,0.7,0.5,1.3,1.2,1.2c0,0,52.7,0,53.9,0c0,3-4.3,8.7-4.3,8.7l-19.2,26h-5.1l-8.6-27.7c0,0-0.3-1.3-1.4-0.9
			c-5.6,1.9-11.1,8-11.1,13.9c0,0.8,0.1,1.7,0.3,2.5l3.8,12.3h-16.7c-0.7,0-1.3,0.6-1.3,1.3v15c0,0.7,0.6,1.2,1.3,1.2h85.1
			c0.7,0,1.3-0.6,1.3-1.2v-15C569.9,220,569.4,219.4,568.6,219.4z M506.4,171v-27.9H546V171H506.4z"/>
		<path class="st6" d="M732,170h-31.1v-12.2h24.4c0.8,0,1.5-0.6,1.5-1.4v-12.8c0-0.8-0.7-1.4-1.5-1.4H701v-8.4h15.6
			c5.7,0,10.9-5.2,10.9-10.4c0-5.2,0.1-29.7,0.1-29.7c0-0.1-0.1-0.1-0.1-0.1v-0.8c0-0.8-0.7-1.4-1.4-1.4c0,0-107.3,0.1-113.5,0
			s-10.6,4.1-11.5,11.5c-0.4,5.2-9.2,132.8-9.2,132.8c-0.1,0.8,0.5,1.5,1.3,1.6h15.9c0.8,0,1.4-0.6,1.5-1.4l3.7-49.6h17V220
			l-12.5,2.2c-0.8,0.1-1.3,0.8-1.2,1.6l-0.8,11.8c0.2,0.7,0.9,1.3,1.7,1.1l59.4-10.1c0.8-0.1,1.3-0.9,1.2-1.7v-11.6
			c-0.1-0.8-0.9-1.3-1.7-1.2l-29.2,4.9v-30.8h16.1c0.1,0.1,0.2,0.3,0.4,0.5l50.8,50.1c0.4,0.4,0.9,0.4,1.4,0.4h19.7
			c0.9,0,0.9-1.1,0.3-1.6l-23.5-23.3l20.5-15.8c0.6-0.6,0.6-1.5,0-2c0,0-18.5-0.1-21.2-0.1c-3.1,3-9.7,7.5-9.7,7.5l-16-15.7h45
			c0.8,0,1.5-0.7,1.5-1.5v-13.5C733.5,170.7,732.8,170,732,170z M641.8,142.3h-18.9c-0.8,0-1.4,0.6-1.4,1.4v12.8
			c0,0.8,0.6,1.4,1.4,1.4h18.9V170h-26.9l2.7-36.1h24.2V142.3z M618.6,118.3l0.9-9.4h94v9.4H618.6z M684,133.9v8.4h-25.2v-8.4H684z
			 M658.7,157.8h25.2V170h-25.2V157.8z"/>
	</g>
	<g>
		<path class="st7" d="M132.9,26.5c-8.3-2.7-15.9-8.1-19.9-12.7c-4.2,4.7-10.9,9.8-18.7,13.1l-1.9-3.8c7.8-2.6,16.1-9.2,19.4-14.3
			l5,0.6c-0.5,0.2-0.9,0.5-1.4,1.3c3,4.1,10,9.3,19.4,12.1L132.9,26.5z M124,47.5h-5.1l-1.6-4.1c1.6,0.3,3.1,0.4,5.7,0.4
			c2.4,0,3.1-1,3.1-3.3V34h-13.2v17.2H109V34H96.3v-3.6H130v10.8C129.9,46,127.9,47.5,124,47.5z M103.6,26v-3.5h19.9V26H103.6z"/>
		<path class="st7" d="M162,37.8l-6.5-6.7v20h-3.7V32.9c-1.9,4-4.4,7.9-7.1,10.7l-2.4-3.2c3.7-3.6,7.7-10.3,9.2-15.1h-7.7v-3.6h8
			v-6.4c-2.4,0.5-4.8,0.8-6.9,0.9l-1-3.3c4.8-0.2,12.5-1.6,16.3-3.2l2.1,3.6c-0.1,0-0.3,0-0.6,0c-2,0-4.4,1-6.3,1.4v7.1h8.1v3.6
			h-8.1V27l8.7,8.1L162,37.8z M179.8,50.9v-2.4h-10.1v2.4h-3.8V14.5h17.7v36.3h-3.8L179.8,50.9L179.8,50.9z M179.8,18.1h-10.1v26.7
			h10.1V18.1z"/>
		<path class="st7" d="M210.9,48.3h-1.3c-8,0-13.7-3.9-13.7-11.7h4.3c0,5.6,3.9,8,9.6,8h1.1c6.9,0,9.8-2.6,9.8-6.7v-0.5
			c0-3.3-2.1-6.4-8.8-6.4h-4.5v-3.3h4.9c5.6,0,7.8-3,7.8-5.9v-0.5c0-4.2-3.9-6.2-9.3-6.2h-1.2c-5.5,0-8.9,2.6-8.9,7h-4.3
			c0-6.4,5.5-10.7,13-10.7h1.4c7,0,13.7,3.1,13.7,9.9v0.4c0,3.3-1.8,6.2-6.2,7.7c4.9,1.5,6.8,4.7,6.8,8.3v0.4
			C225.2,44.1,219.8,48.3,210.9,48.3z"/>
		<path class="st7" d="M261.8,42.3v8.9h-3.9v-8.9H236v-3.7h6.7V26.8h15.1v-7.7h-13.2c-1.3,2.7-2.9,5.4-4.7,7.8l-3.1-2.5
			c3-3.6,6.1-9.6,7.7-14.7l4.6,0.9c-1.2,0-2.3,3.7-2.8,4.9h30.1v3.6h-14.7v7.7h13.1v3.6h-13.1v8.2h16.2v3.7H261.8z M257.9,30.4
			h-11.2v8.2h11.2V30.4z"/>
		<path class="st7" d="M294.5,16.7v13.7c0,6.3-1.5,15-5.5,20.9l-3.3-2.1c3.2-4.2,5-12,5-19.1V13.4h16.4V9.2h4.6
			c-0.5,0.4-0.6,0.9-0.6,2.6v1.5h16.6v3.4C327.7,16.7,294.5,16.7,294.5,16.7z M325.2,51.1c-5.3-0.7-9.8-2.3-13.6-4.3
			c-3.9,1.9-8.8,3.5-14.9,4.3l-1.4-3.2c5.3-0.5,9.6-1.6,13.1-3.1c-2.1-1.4-3.9-3.1-5.6-4.8l2.5-1.8c1.8,1.9,3.8,3.6,6.2,5
			c3.1-1.7,5.4-3.7,7.2-5.6h-20.6v-3.1h24.7v3.2c-1.9,2.4-4.4,5-8,7.2c3.2,1.4,7.1,2.4,11.8,2.9L325.2,51.1z M320,24.5v7h-17.3v-7
			h-7.1v-3.1h7.1v-3.6h4.3c-0.6,0.3-0.7,0.7-0.7,2v1.6h10.1v-3.6h4.3c-0.6,0.3-0.7,0.7-0.7,2v1.6h6.2v3.1H320z M316.5,24.5h-10.1
			v4.4h10.1V24.5z"/>
		<path class="st7" d="M391.8,40.8v10.4h-4V40.8H369v-3.7h18.8v-4.9h4.6c-0.6,0.5-0.6,1-0.6,3v1.9h18.8v3.7H391.8z M385.9,32.2
			c-1.4-0.7-4.4-3.1-6.4-5.1c-1.7,2.4-3.9,4.7-6.7,6.6l-2.5-2.8c3.6-2,8.1-7.4,9.8-12.5l4.1,1.3c-0.8,0.1-2.4,3.8-2.9,4.6
			c1.9,1.9,5,4,6.9,4.9L385.9,32.2z M370.9,17.8v-3.6h16.9v-5h4.7c-0.6,0.4-0.7,1-0.7,2.6v2.3h16.9v3.6h-37.8V17.8z M406.9,33.1
			c-1.6-0.8-5.6-3.9-7.9-6.1c-1.4,1.9-3.2,3.6-5.7,5.4l-2.5-2.8c3.7-2.1,7.3-6.2,8.9-11.4l4,1.4c-0.8,0.1-2.3,3.8-2.8,4.7
			c2.1,2.1,6.2,4.8,8.2,5.7L406.9,33.1z"/>
		<path class="st7" d="M458.4,51.4c-7.5-2.5-13.7-6.6-17.2-10.2v10h-3.8v-9.9c-3.5,3.6-9.5,7.5-17.1,10.1l-2-3.3
			c6.7-1.8,12.4-5,15.8-7.9h-15.6v-3h18.9v-3.8h-14.8v-2.9h14.8v-3.8h-16.8v-3h10.8c-0.6-1.8-1.4-3.6-2.3-5.2h-10.3v-3.1h6.4
			c-0.8-1.5-1.8-3-2.8-4.3l2.9-1.5c1.2,1.6,2.6,3.8,3.7,5.8h3.6V9.2h4.3c-0.6,0.2-0.7,0.8-0.7,1.9v4.4h6.2V9.2h4.3
			c-0.6,0.2-0.7,0.8-0.7,1.9v4.4h4.4l2.6-5.8l3.9,1.4c-0.8,0.1-1.1,0.4-1.8,1.9l-1.2,2.4h5.8v3.1h-10.2l-2.1,5.2H458v3h-16.8v3.8
			h14.7v2.9h-14.7v3.8h18.9v3h-15.4c3.4,2.9,9.1,6.1,15.8,7.9L458.4,51.4z M433.2,18.7c0.8,1.6,1.5,3.3,2.1,5.2h8.1l2-5.2H433.2z"/>
		<path class="st7" d="M478.9,15c-0.5,3.3-1.5,7-2.9,10.5h7.9v21h-8.8v2.8H472v-16c-0.7,1.2-1.6,2.2-2.5,3.2l-1.8-3.8
			c3.9-4.1,6.7-11.8,7.5-17.8h-5.8v-3.6h16V15H478.9z M480.8,29.1h-5.7v13.8h5.7V29.1z M505.9,30.8v20.4h-3.7V30.8h-7.3
			c-0.4,7.5-2.3,14.8-6.7,20.3l-3.1-2.4c3.8-4,5.8-10.4,6.2-17.9h-4.9v-3.7h5V14.9h-3.8v-3.7h21.8v3.7h-3.5v12.2h4.7v3.7H505.9z
			 M502.2,14.9h-7.3v12.2h7.3V14.9z"/>
		<path class="st7" d="M557.2,50.6h-6.5c-2.6,0-4.3-1.5-4.3-4.3V35.8h-10.3c-1.9,7.4-6.9,12.5-15.7,15.5l-1.9-3.5
			c7.5-2.1,11.8-5.8,13.6-12h-10.4v-3.7h11.2c0.2-1.6,0.3-3.2,0.3-5l4.5,0.1c-1.1,1-0.8,3.5-1,4.9h13.4v13.3c0,1,0.5,1.5,1.4,1.5h5
			c1.7,0,1.9-0.7,2.5-5.9l3.1,1.4C561.7,48.7,560.6,50.6,557.2,50.6z M557.2,20.2v-4h-10.9v5.6c0,1.2,0.6,1.9,1.8,1.9h5.7
			c1.6,0,2.1-1,2.4-2.8l3.3,1.3c-0.7,3.1-2,4.6-5,4.6h-7.4c-3.1,0-4.5-1.6-4.5-4.4v-6.2h-19.9v4h-3.8v-7.4H538V9.2h4.5
			c-0.6,0.4-0.6,0.7-0.6,2.3v1.2h19v7.4h-3.7V20.2z M536.9,18.4c-0.5,0-1,0.3-1.5,1.2c-2.5,3.8-6.9,7.3-13.5,9.4l-1.9-3.2
			c6.9-1.6,11.2-5.2,13.2-9.3L536.9,18.4L536.9,18.4z"/>
		<path class="st7" d="M581.3,11.9c-1,3.8-2.8,8.2-5,12.4h2.1c-0.5,0.3-0.6,0.9-0.6,2.7v24.2H574v-23c-1.6,2.5-3.4,4.9-5.1,6.7
			l-2.4-3.6c5-4.6,10.2-15.1,11.4-22.2l4.9,0.8C581.9,10.2,581.6,10.9,581.3,11.9z M597.9,19.6v6.6h9.1v3.7h-9.1v6.6h9.2v3.8h-9.2
			v10.9h-3.8V19.6h-4.2c-1.7,4.1-3.8,8.8-5.7,11.5l-3.2-2.5c3.1-4.2,7.5-15.1,8.3-19.3l4.7,0.9c-1.2,0.2-2.2,4.3-2.6,5.5h18.1v3.8
			h-11.6V19.6z"/>
		<path class="st7" d="M630.6,51.1v-1.9H620v1.9h-3.6V31.7h17.7v19.4H630.6z M630.6,35.1H620v10.6h10.6V35.1z M623.1,27.5V10.8h26
			v16.7H623.1z M645.1,14.1h-18v10.1h18V14.1z M652.3,51.1v-1.9h-10.6v1.9h-3.6V31.7h17.6v19.4H652.3z M652.3,35.1h-10.6v10.6h10.6
			V35.1z"/>
		<path class="st7" d="M674.5,21.4V26c0,10.1-1.9,18.1-6.1,24.1l-3.3-2.2c3.8-4.9,5.6-12.2,5.6-21.8V10.7h34.4v10.7H674.5z M706,51
			c-7.3-1.9-13-6-16.2-13.1h-5.7v8.5c3.5-0.6,6.8-1.3,9.4-2v3.2c-4.6,1.2-10.2,2.3-15.9,3c-1.8,0.2-2.1,0.3-2.5,0.8l-0.7-3.8
			c2-0.1,4.1-0.3,6.2-0.6v-9h-6.4v-3.1h8.5v-5.3h-6.8v-3.1h6.8v-4.1h4.2c-0.5,0.2-0.6,0.6-0.6,2.1v2h8.3v-4.1h4.2
			c-0.6,0.2-0.6,0.6-0.6,2.1v2h6.9v3.1h-6.9v5.3h8.3V38h-4.1l2.4,1.9h-0.2c-0.5,0-1,0.3-1.9,1.2l-3.4,3.4c2.4,1.5,5.2,2.6,8.3,3.3
			L706,51z M701.4,13.7h-26.9v4.7h26.9V13.7z M694.6,29.6h-8.3v5.3h8.3V29.6z M693.2,37.9c1,2,2.4,3.7,4,5l5-5H693.2z"/>
	</g>
</g>
<g id="修正パーツ">
	<g id="修正線">
		<line class="st8" x1="76.5" y1="338" x2="723.5" y2="338"/>
		<line class="st8" x1="76.5" y1="351.8" x2="723.5" y2="351.8"/>
	</g>
	<g id="文字">
		<path class="st4" d="M279.6,408.6c0-0.2,0.1-2.2,0.1-2.9c-0.8,1.7-2.1,3.4-4.1,5.6c-2.2,2.4-5.1,5-7.9,7c-1.6,1.1-2.9,2-5.9,3.7
			c-1-1.9-1.6-2.6-3.3-4.2c4.8-2.2,8.6-4.8,12.6-8.7c2-2,4-4.5,5.4-6.6h-11c-3,0-3.5,0-4.9,0.2v-4.9c1.5,0.3,2.2,0.3,5,0.3h13.8
			v-3.2c0-2.2,0-2.2-0.2-3.7h5.3c-0.1,1-0.2,1.8-0.2,3.4v0.2l0.1,3.2h4c2.7,0,3.3,0,4.7-0.3v4.8c-1.2-0.1-2.1-0.2-4.6-0.2h-4.1
			l0.2,18.6c0,2,0.1,3.5,0.2,4.6h-5.4c0.2-1.1,0.2-2.2,0.2-3.8c0-0.2,0-0.4,0-0.7l-0.1-12L279.6,408.6L279.6,408.6z"/>
		<path class="st4" d="M305.8,418.7c3.4-0.2,8.2-1.4,11.8-3c5-2.2,8.7-5.2,11.9-9.8c1.8-2.6,2.9-4.8,4.1-8c1.6,1.9,2.2,2.5,4.2,3.9
			c-3.4,7.3-7.2,12-12.7,15.7c-4.1,2.7-9,4.7-15.2,6c-1.6,0.3-1.7,0.4-2.6,0.7L305.8,418.7z M309.2,393.9c4.8,3,7.2,4.8,10.3,7.7
			l-3.4,4.4c-3.2-3.4-6.5-6-10.2-8.1L309.2,393.9z"/>
		<path class="st4" d="M378.4,404.2c-0.4,0.7-0.6,1.3-1.1,2.5c-2.1,5.9-5.1,10.3-9.3,13.5c-2.8,2.2-5.4,3.6-10.5,5.4
			c-0.9-2-1.4-2.7-3.1-4.6c4.9-1.2,8-2.7,11.1-5.3c3-2.5,4.7-4.9,6.4-9.4h-19.5c-2.7,0-3.7,0-5.1,0.2v-4.9c1.5,0.2,2.4,0.3,5.2,0.3
			h19c2.5,0,3.3-0.1,4.5-0.4L378.4,404.2z M350.7,392.1c1.3,0.2,2.2,0.3,4.7,0.3h14c2.5,0,3.4,0,4.7-0.3v4.9c-1.2-0.2-2-0.2-4.6-0.2
			h-14.1c-2.6,0-3.4,0-4.6,0.2v-4.9H350.7z"/>
		<path class="st4" d="M419.8,394.3c-0.7,0.6-0.9,0.8-1.5,1.4c-3,3.1-6,5.7-9.4,8.2V421c0,2.2,0,3.4,0.2,4.4h-5.6
			c0.2-1.2,0.2-2,0.2-4.3V407c-4.7,2.8-6.9,3.8-14.3,6.5c-0.8-2.1-1.3-2.8-2.7-4.6c7.9-2.2,14.6-5.5,21-10.4
			c3.6-2.8,6.3-5.5,7.4-7.5L419.8,394.3z"/>
		<path class="st4" d="M430,418.7c3.4-0.2,8.2-1.4,11.8-3c5-2.2,8.7-5.2,11.9-9.8c1.8-2.6,2.9-4.8,4.1-8c1.6,1.9,2.2,2.5,4.2,3.9
			c-3.4,7.3-7.2,12-12.7,15.7c-4.1,2.7-9,4.7-15.2,6c-1.6,0.3-1.7,0.4-2.6,0.7L430,418.7z M433.4,393.9c4.8,3,7.2,4.8,10.3,7.7
			l-3.4,4.4c-3.2-3.4-6.5-6-10.2-8.1L433.4,393.9z"/>
		<path class="st4" d="M503.6,415.9c-1,0.9-1.1,1-1.7,1.5c-2.1,1.9-2.2,2-3.3,2.8c2.5,1.4,4.6,2,8.6,2.8c-1.3,1.4-1.8,2.3-2.6,4.1
			c-5.4-1.6-8.6-3.2-11.9-6.1v3c-3.2,0.8-7.1,1.5-14.2,2.8c-0.7,0.1-0.9,0.2-1.6,0.3l-0.7-4.6c0.4,0,0.6,0,0.7,0
			c0.9,0,2.1-0.1,4-0.3v-7.8h-4c-0.7,5.4-1.8,9-4.2,12.9c-1.2-1.4-2-2.4-3.6-3.6c1.5-2.4,2.4-4.6,3-7.7c0.8-4,1.2-10.2,1.2-18.4
			c0-3.6,0-4.7-0.2-6.4c1.4,0.2,2.9,0.2,5.2,0.2H500c2.2,0,3.4,0,4.6-0.2c-0.1,1.1-0.1,2-0.1,3.6v3.1c0,1.6,0,2.4,0.1,3.5
			c-1.3-0.1-2.8-0.1-4.4-0.1h-2.3v2.7h2.3c2.3,0,3,0,4-0.2v4c-1.1-0.1-2.5-0.2-4-0.2H498v3.1h3.5c2.2,0,3.5,0,4.5-0.2v4.1
			c-1.4-0.1-2.8-0.2-4.4-0.2h-1.8L503.6,415.9z M483.6,401.6v-0.5h-6c0,4.4-0.1,6.8-0.4,9.4h6.4v-3.1h-1.5c-1.5,0-2.5,0-3.4,0.2v-4
			c0.9,0.1,1.8,0.2,3.4,0.2h1.5V401.6z M500.5,397.7v-2.8h-22.8v2.8H500.5z M485.2,414.2v7.2c2.3-0.3,2.8-0.4,6.8-1.2
			c-2-2-2.9-3.4-4.1-6H485.2z M493.9,403.8v-2.7h-6.2v2.7H493.9z M493.9,410.5v-3.1h-6.2v3.1H493.9z M492.2,414.2
			c0.8,1.5,1.6,2.5,3.1,3.8c1.6-1.1,3-2.5,3.9-3.8H492.2z"/>
		<path class="st4" d="M526.6,409c-1.9,5.8-4.5,10.3-8.4,14.7c-1.2-1.4-2.1-2.1-3.9-3.1c3.5-3.2,6.5-8.1,7.9-13.2L526.6,409z
			 M519.9,404.9c-2.1,0-3.4,0.1-4.9,0.2v-4.9c1.5,0.2,2.6,0.2,5,0.2h26.1c2.1,0,3.5-0.1,5-0.2v4.9c-1.6-0.2-2.8-0.2-4.9-0.2h-10.3
			v16.5c0,2.4-0.3,3.3-1.4,4c-0.9,0.6-2.1,0.8-4.8,0.8c-1.8,0-3.2,0-4.7-0.2c-0.2-1.9-0.4-3-1.1-4.6c1.9,0.3,3.7,0.5,5.1,0.5
			c1.9,0,2.1-0.1,2.1-1v-16L519.9,404.9L519.9,404.9z M547,395.6c-1.4-0.2-3.2-0.2-5-0.2h-18.3c-1.6,0-3.2,0.1-4.9,0.2v-4.7
			c1.5,0.2,2.8,0.2,4.9,0.2H542c1.9,0,3.4-0.1,4.9-0.2L547,395.6L547,395.6z M543.8,407.4c1.4,3.6,2.5,5.6,4.6,8.4
			c1.4,1.8,2.2,2.7,3.9,4.4c-1.4,1.1-2.4,2-3.8,3.5c-4.5-5.3-6.2-8.2-8.9-14.6L543.8,407.4z"/>
	</g>
</g>
</svg>
