<?xml version="1.0" encoding="utf-8"?>
<!-- Generator: Adobe Illustrator 26.0.3, SVG Export Plug-In . SVG Version: 6.00 Build 0)  -->
<svg version="1.1" xmlns="http://www.w3.org/2000/svg" xmlns:xlink="http://www.w3.org/1999/xlink" x="0px" y="0px"
	 viewBox="0 0 198.4 541.4" style="enable-background:new 0 0 198.4 541.4;" xml:space="preserve">
<style type="text/css">
	.st0{fill:#E95513;}
	.st1{fill:none;stroke:#E95513;stroke-width:1.9874;}
	.st2{fill:#FFFFFF;}
	.st3{fill:#004EA2;}
	.st4{fill:#EA5514;}
	.st5{fill:none;stroke:#004EA2;stroke-width:3.3985;stroke-miterlimit:10;}
	.st6{fill:#004DA0;stroke:#004DA0;stroke-width:1.9874;stroke-miterlimit:10;}
	.st7{fill:#FFFFFF;stroke:#004DA0;stroke-width:1.0036;stroke-miterlimit:10;}
	.st8{fill:none;stroke:#FF3300;stroke-width:0.7087;stroke-miterlimit:10;}
	.st9{fill:none;stroke:#FF3300;stroke-width:0.7889;stroke-miterlimit:10;}
	.st10{fill:#FF3300;}
</style>
<g id="レイヤー_1">
	<g id="詳細">
		<path class="st0" d="M62.6,493.5c-5.4-3.3-9.3-8.5-11-14.6c-2.2,6-6.3,11.1-11.7,14.6l-2.6-3.4c5.9-3.5,10.2-9.2,11.8-15.9
			l1.4,0.4c-0.2-1.1-0.4-2.3-0.5-3.5h-7.6v-3.9h11.2c0.4,12.2,5,18.9,11.7,22.8L62.6,493.5z"/>
		<path class="st0" d="M84.2,480.7c-0.3,0.5-0.7,1-1.1,1.6h11.4v7.2c0,3.1-1.4,4-3.8,4h-2.2l-1-2.8c-1,1.2-2.2,2.3-3.4,3.3l-2-1.9
			c2.6-1.8,4.6-4.2,6-7h-2.3c-2,3.2-4.8,5.7-8.1,7.5l-1.7-2.1c2.7-1.2,5.1-3.1,7-5.4h-2.4c-1,0.9-2.1,1.7-3.3,2.4l-1.6-2.1v1.6
			c-2,0.9-4.1,1.7-6.2,2.3c-0.6,0.2-1.2,0.5-1.7,1l-0.7-3.8c1-0.2,2-0.5,3-0.8v-9.3h-2.6V473h2.6v-6.6H74c-0.4,0.3-0.4,0.9-0.4,2.5
			v4.1h2.6v3.4h-2.6v8c0.8-0.3,1.5-0.6,2.1-0.9v1.6c2.1-0.9,3.9-2.4,5.3-4.3h-4.6v-2.7H95v2.7H84.2L84.2,480.7z M77.8,476.7v-10
			h15.4v10.1L77.8,476.7z M89.9,468.7h-8.8v1.9h8.8V468.7z M89.9,472.7h-8.8v1.9h8.8V472.7z M91.6,485h-0.8c-0.8,2-1.8,3.8-3.2,5.5
			c0.9,0.1,1.8,0.2,2.6,0.2c1,0,1.3-0.3,1.3-1.7C91.6,489,91.6,485,91.6,485z"/>
		<path class="st0" d="M103.3,489.7c-0.9,1.5-1.9,3-3,4.4l-2.9-2.1c1.6-1.5,2.8-3.3,3.8-5.3l3.5,1.5
			C104.1,488.3,103.9,488.7,103.3,489.7z M121.5,479.1v4.1h2.4v3H98.6v-3h2.7v-4.1h-3.8v-3h3.8v-2.8c-0.6,0.4-1.2,0.8-1.8,1.1
			l-1.8-3c2.6-1.2,4.7-3.1,6-5.6l4.1,0.9c-0.6,0.1-1.4,1.6-1.8,2.1h18.1v3h-2.4v4.3h3.6v3L121.5,479.1z M107.1,471.9h-2.8v4.3h2.8
			V471.9z M107.1,479.1h-2.8v4.1h2.8V479.1z M106.7,493.9l-0.4-6.2l3.1-0.2l0.7,6.2L106.7,493.9z M112.8,471.9H110v4.3h2.8V471.9z
			 M112.8,479.1H110v4.1h2.8V479.1z M114.1,493.7l-1.5-6l3-0.6l1.8,5.9L114.1,493.7z M118.6,471.9h-2.8v4.3h2.8V471.9z M118.6,479.1
			h-2.8v4.1h2.8V479.1z M122.5,494l-3.8-6l2.6-1.5l4,5.6L122.5,494z"/>
		<path class="st0" d="M139.7,470.6l-1.9,4.2l-2.1-0.8v1.6h4.2v3.3h-4.2v1l5.2,5.3l-2.1,2.5l-3.1-3.9v9.9h-3.3v-9.1
			c-1,2-2.2,3.9-3.7,5.6l-1.9-3c2.4-2.4,4.2-5.2,5.3-8.4h-4.6v-3.3h5v-9.5h3.8c-0.4,0.3-0.5,0.9-0.5,2.5v5.2l2.6-5.8l2.7,1.1
			C140.4,469.2,140.1,469.7,139.7,470.6z M129.8,474.8c-0.6-2-1.4-4-2.3-5.9l2.3-0.8c0.9,1.9,1.7,3.9,2.3,6L129.8,474.8z
			 M152.2,485.9v7.7h-3.4v-7.1l-7.5,1.3l-0.5-3.5l7.9-1.4v-10.9l-1.6,2.7l-5.1-3l1.7-2.7l5,2.9v-5.5h3.9c-0.4,0.4-0.5,0.9-0.5,2.9
			v13.1l2.6-0.5l0.5,3.6L152.2,485.9z M146.2,481l-5.2-3l1.6-2.8l5.3,2.8L146.2,481z"/>
		<path class="st1" d="M62.6,493.5c-5.4-3.3-9.3-8.5-11-14.6c-2.2,6-6.3,11.1-11.7,14.6l-2.6-3.4c5.9-3.5,10.2-9.2,11.8-15.9
			l1.4,0.4c-0.2-1.1-0.4-2.3-0.5-3.5h-7.6v-3.9h11.2c0.4,12.2,5,18.9,11.7,22.8L62.6,493.5z"/>
		<path class="st1" d="M84.2,480.7c-0.3,0.5-0.7,1-1.1,1.6h11.4v7.2c0,3.1-1.4,4-3.8,4h-2.2l-1-2.8c-1,1.2-2.2,2.3-3.4,3.3l-2-1.9
			c2.6-1.8,4.6-4.2,6-7h-2.3c-2,3.2-4.8,5.7-8.1,7.5l-1.7-2.1c2.7-1.2,5.1-3.1,7-5.4h-2.4c-1,0.9-2.1,1.7-3.3,2.4l-1.6-2.1v1.6
			c-2,0.9-4.1,1.7-6.2,2.3c-0.6,0.2-1.2,0.5-1.7,1l-0.7-3.8c1-0.2,2-0.5,3-0.8v-9.3h-2.6V473h2.6v-6.6H74c-0.4,0.3-0.4,0.9-0.4,2.5
			v4.1h2.6v3.4h-2.6v8c0.8-0.3,1.5-0.6,2.1-0.9v1.6c2.1-0.9,3.9-2.4,5.3-4.3h-4.6v-2.7H95v2.7H84.2L84.2,480.7z M77.8,476.7v-10
			h15.4v10.1L77.8,476.7z M89.9,468.7h-8.8v1.9h8.8V468.7z M89.9,472.7h-8.8v1.9h8.8V472.7z M91.6,485h-0.8c-0.8,2-1.8,3.8-3.2,5.5
			c0.9,0.1,1.8,0.2,2.6,0.2c1,0,1.3-0.3,1.3-1.7C91.6,489,91.6,485,91.6,485z"/>
		<path class="st1" d="M103.3,489.7c-0.9,1.5-1.9,3-3,4.4l-2.9-2.1c1.6-1.5,2.8-3.3,3.8-5.3l3.5,1.5
			C104.1,488.3,103.9,488.7,103.3,489.7z M121.5,479.1v4.1h2.4v3H98.6v-3h2.7v-4.1h-3.8v-3h3.8v-2.8c-0.6,0.4-1.2,0.8-1.8,1.1
			l-1.8-3c2.6-1.2,4.7-3.1,6-5.6l4.1,0.9c-0.6,0.1-1.4,1.6-1.8,2.1h18.1v3h-2.4v4.3h3.6v3L121.5,479.1z M107.1,471.9h-2.8v4.3h2.8
			V471.9z M107.1,479.1h-2.8v4.1h2.8V479.1z M106.7,493.9l-0.4-6.2l3.1-0.2l0.7,6.2L106.7,493.9z M112.8,471.9H110v4.3h2.8V471.9z
			 M112.8,479.1H110v4.1h2.8V479.1z M114.1,493.7l-1.5-6l3-0.6l1.8,5.9L114.1,493.7z M118.6,471.9h-2.8v4.3h2.8V471.9z M118.6,479.1
			h-2.8v4.1h2.8V479.1z M122.5,494l-3.8-6l2.6-1.5l4,5.6L122.5,494z"/>
		<path class="st1" d="M139.7,470.6l-1.9,4.2l-2.1-0.8v1.6h4.2v3.3h-4.2v1l5.2,5.3l-2.1,2.5l-3.1-3.9v9.9h-3.3v-9.1
			c-1,2-2.2,3.9-3.7,5.6l-1.9-3c2.4-2.4,4.2-5.2,5.3-8.4h-4.6v-3.3h5v-9.5h3.8c-0.4,0.3-0.5,0.9-0.5,2.5v5.2l2.6-5.8l2.7,1.1
			C140.4,469.2,140.1,469.7,139.7,470.6z M129.8,474.8c-0.6-2-1.4-4-2.3-5.9l2.3-0.8c0.9,1.9,1.7,3.9,2.3,6L129.8,474.8z
			 M152.2,485.9v7.7h-3.4v-7.1l-7.5,1.3l-0.5-3.5l7.9-1.4v-10.9l-1.6,2.7l-5.1-3l1.7-2.7l5,2.9v-5.5h3.9c-0.4,0.4-0.5,0.9-0.5,2.9
			v13.1l2.6-0.5l0.5,3.6L152.2,485.9z M146.2,481l-5.2-3l1.6-2.8l5.3,2.8L146.2,481z"/>
		<path class="st2" d="M62.6,493.5c-5.4-3.3-9.3-8.5-11-14.6c-2.2,6-6.3,11.1-11.7,14.6l-2.6-3.4c5.9-3.5,10.2-9.2,11.8-15.9
			l1.4,0.4c-0.2-1.1-0.4-2.3-0.5-3.5h-7.6v-3.9h11.2c0.4,12.2,5,18.9,11.7,22.8L62.6,493.5z"/>
		<path class="st2" d="M84.2,480.7c-0.3,0.5-0.7,1-1.1,1.6h11.4v7.2c0,3.1-1.4,4-3.8,4h-2.2l-1-2.8c-1,1.2-2.2,2.3-3.4,3.3l-2-1.9
			c2.6-1.8,4.6-4.2,6-7h-2.3c-2,3.2-4.8,5.7-8.1,7.5l-1.7-2.1c2.7-1.2,5.1-3.1,7-5.4h-2.4c-1,0.9-2.1,1.7-3.3,2.4l-1.6-2.1v1.6
			c-2,0.9-4.1,1.7-6.2,2.3c-0.6,0.2-1.2,0.5-1.7,1l-0.7-3.8c1-0.2,2-0.5,3-0.8v-9.3h-2.6V473h2.6v-6.6H74c-0.4,0.3-0.4,0.9-0.4,2.5
			v4.1h2.6v3.4h-2.6v8c0.8-0.3,1.5-0.6,2.1-0.9v1.6c2.1-0.9,3.9-2.4,5.3-4.3h-4.6v-2.7H95v2.7H84.2L84.2,480.7z M77.8,476.7v-10
			h15.4v10.1L77.8,476.7z M89.9,468.7h-8.8v1.9h8.8V468.7z M89.9,472.7h-8.8v1.9h8.8V472.7z M91.6,485h-0.8c-0.8,2-1.8,3.8-3.2,5.5
			c0.9,0.1,1.8,0.2,2.6,0.2c1,0,1.3-0.3,1.3-1.7C91.6,489,91.6,485,91.6,485z"/>
		<path class="st2" d="M103.3,489.7c-0.9,1.5-1.9,3-3,4.4l-2.9-2.1c1.6-1.5,2.8-3.3,3.8-5.3l3.5,1.5
			C104.1,488.3,103.9,488.7,103.3,489.7z M121.5,479.1v4.1h2.4v3H98.6v-3h2.7v-4.1h-3.8v-3h3.8v-2.8c-0.6,0.4-1.2,0.8-1.8,1.1
			l-1.8-3c2.6-1.2,4.7-3.1,6-5.6l4.1,0.9c-0.6,0.1-1.4,1.6-1.8,2.1h18.1v3h-2.4v4.3h3.6v3L121.5,479.1z M107.1,471.9h-2.8v4.3h2.8
			V471.9z M107.1,479.1h-2.8v4.1h2.8V479.1z M106.7,493.9l-0.4-6.2l3.1-0.2l0.7,6.2L106.7,493.9z M112.8,471.9H110v4.3h2.8V471.9z
			 M112.8,479.1H110v4.1h2.8V479.1z M114.1,493.7l-1.5-6l3-0.6l1.8,5.9L114.1,493.7z M118.6,471.9h-2.8v4.3h2.8V471.9z M118.6,479.1
			h-2.8v4.1h2.8V479.1z M122.5,494l-3.8-6l2.6-1.5l4,5.6L122.5,494z"/>
		<path class="st2" d="M139.7,470.6l-1.9,4.2l-2.1-0.8v1.6h4.2v3.3h-4.2v1l5.2,5.3l-2.1,2.5l-3.1-3.9v9.9h-3.3v-9.1
			c-1,2-2.2,3.9-3.7,5.6l-1.9-3c2.4-2.4,4.2-5.2,5.3-8.4h-4.6v-3.3h5v-9.5h3.8c-0.4,0.3-0.5,0.9-0.5,2.5v5.2l2.6-5.8l2.7,1.1
			C140.4,469.2,140.1,469.7,139.7,470.6z M129.8,474.8c-0.6-2-1.4-4-2.3-5.9l2.3-0.8c0.9,1.9,1.7,3.9,2.3,6L129.8,474.8z
			 M152.2,485.9v7.7h-3.4v-7.1l-7.5,1.3l-0.5-3.5l7.9-1.4v-10.9l-1.6,2.7l-5.1-3l1.7-2.7l5,2.9v-5.5h3.9c-0.4,0.4-0.5,0.9-0.5,2.9
			v13.1l2.6-0.5l0.5,3.6L152.2,485.9z M146.2,481l-5.2-3l1.6-2.8l5.3,2.8L146.2,481z"/>
		<path class="st3" d="M17.3,401.7H21v1.4h-6.8l3.5-4.3c0.3-0.4,0.6-0.8,0.9-1.1c0.2-0.3,0.4-0.5,0.5-0.8c0.2-0.3,0.4-0.7,0.4-1.1
			c0-0.4-0.2-0.9-0.5-1.2c-0.3-0.3-0.8-0.5-1.2-0.5c-1,0-1.6,0.6-1.7,1.8h-1.5c0.2-2.1,1.3-3.2,3.2-3.2c0.9,0,1.7,0.3,2.3,0.9
			c0.6,0.5,1,1.3,1,2.2c0,0.6-0.2,1.1-0.4,1.6c-0.2,0.3-0.4,0.7-0.6,1c-0.3,0.4-0.6,0.8-1.1,1.3L17.3,401.7z"/>
		<path class="st3" d="M22.8,398c-0.1-1.4,0.3-2.7,1.1-3.9c0.6-0.8,1.5-1.3,2.4-1.3c1,0,1.9,0.5,2.4,1.3c1.5,2.4,1.5,5.4,0,7.8
			c-0.9,1.3-2.8,1.7-4.2,0.7c-0.3-0.2-0.5-0.4-0.7-0.7C23.1,400.8,22.7,399.4,22.8,398z M24.3,398c0,1,0.2,1.9,0.6,2.8
			c0.2,0.6,0.8,1,1.5,1.1c0.7,0,1.2-0.5,1.5-1.1c0.4-0.9,0.6-1.8,0.6-2.7c0-1-0.2-1.9-0.6-2.8c-0.3-0.8-1.1-1.3-2-1
			c-0.5,0.2-0.9,0.5-1,1C24.4,396.2,24.2,397.1,24.3,398z"/>
		<path class="st3" d="M33.8,401.7h3.8v1.4h-6.8l3.5-4.3c0.3-0.4,0.6-0.8,0.9-1.1c0.2-0.3,0.4-0.5,0.5-0.8c0.2-0.3,0.3-0.7,0.4-1.1
			c0-0.4-0.2-0.9-0.5-1.2c-0.3-0.3-0.8-0.5-1.2-0.5c-1,0-1.6,0.6-1.7,1.8h-1.5c0.3-2.1,1.3-3.2,3.2-3.2c0.9,0,1.7,0.3,2.3,0.9
			c0.6,0.5,1,1.3,1,2.2c0,0.6-0.2,1.1-0.4,1.6c-0.2,0.3-0.4,0.7-0.7,1c-0.3,0.4-0.6,0.8-1.1,1.3L33.8,401.7z"/>
		<path class="st3" d="M42.1,401.7h3.7v1.4h-6.8l3.5-4.3c0.3-0.4,0.6-0.8,0.9-1.1c0.2-0.2,0.4-0.5,0.5-0.8c0.2-0.3,0.4-0.7,0.4-1.1
			c0-0.4-0.2-0.9-0.5-1.2c-0.3-0.3-0.8-0.5-1.2-0.5c-1,0-1.6,0.6-1.8,1.8h-1.5c0.3-2.1,1.3-3.2,3.2-3.2c0.9,0,1.7,0.3,2.3,0.9
			c0.6,0.6,1,1.3,0.9,2.2c0,0.6-0.2,1.1-0.4,1.6c-0.2,0.3-0.4,0.7-0.7,1c-0.3,0.4-0.6,0.8-1.1,1.3L42.1,401.7z"/>
		<path class="st3" d="M21.6,434.3c2,1.2,4.4,1.9,6.7,1.9c5.3,0,7-3.4,6.9-5.9c0-4.3-3.9-6.1-7.9-6.1H25v-3.1h2.3
			c3,0,6.8-1.5,6.8-5.2c0-2.4-1.5-4.6-5.3-4.6c-2.2,0.1-4.3,0.7-6.1,2l-1.1-3c2.4-1.5,5.1-2.4,7.9-2.3c6,0,8.7,3.6,8.7,7.3
			c0,3.1-1.9,5.8-5.6,7.2v0.1c3.7,0.8,6.8,3.6,6.8,7.8c0,4.9-3.8,9.1-11.1,9.1c-2.8,0-5.5-0.7-7.9-2.1L21.6,434.3z"/>
		<g id="_">
			<path class="st4" d="M107.4,404.1H91.9l-0.8,4.9l2-0.2c0.6-0.1,1.2-0.1,1.8-0.1c2.2,0,4.3,0.4,6.3,1.2c1.9,0.7,3.5,1.9,5,3.3
				c1.4,1.4,2.5,3.1,3.3,5c0.8,2,1.2,4.2,1.2,6.4c0,2.2-0.4,4.5-1.3,6.5c-0.9,1.9-2.2,3.6-3.8,5c-1.8,1.4-3.8,2.5-6,3.1
				c-2.5,0.8-5.1,1.1-7.8,1.1c-2.6,0-5.2-0.3-7.7-1c-2.4-0.6-4.7-1.6-6.9-3l1.7-10.9c1.8,1.6,3.8,2.9,6.1,3.9
				c1.8,0.8,3.9,1.3,5.9,1.3c2.1,0.1,4.1-0.6,5.6-1.9c1.4-1.2,2.1-3,2.1-4.8c0-2.1-1-4.2-2.8-5.4c-2.1-1.5-4.7-2.2-7.3-2
				c-1.4,0-2.8,0.2-4.2,0.4c-1.5,0.3-2.9,0.8-4.2,1.4l3.7-24h23.4C107.4,394.3,107.4,404.1,107.4,404.1z"/>
			<circle class="st3" cx="111.3" cy="434.2" r="7.3"/>
			<path class="st2" d="M110.4,430.9c0-0.4,0-0.7-0.1-1.1h1.4c0,0.4-0.1,0.7-0.1,1.1v1.5h1.6c0.4,0,0.8,0,1.2-0.1v1.2
				c-0.4,0-0.8-0.1-1.2,0h-1.6v3.1h2.1c0.5,0,0.9,0,1.4-0.1v1.3c-0.4-0.1-0.9-0.1-1.4-0.1h-5.4c-0.5,0-0.9,0-1.4,0.1v-1.3
				c0.5,0,0.9,0.1,1.4,0.1h2v-3.1H109c-0.4,0-0.8,0-1.3,0v-1.2c0.4,0.1,0.8,0.1,1.3,0.1h1.5C110.4,432.3,110.4,430.9,110.4,430.9z"
				/>
		</g>
		<g id="_2">
			<path class="st4" d="M161.4,394.3l-12.7,14.6h0.2c0.8-0.6,1.8-1,2.7-1.2c0.6-0.1,1.3-0.2,1.9-0.2c2.1,0,4.1,0.4,6,1.2
				c1.8,0.8,3.4,2,4.8,3.4c1.4,1.5,2.4,3.2,3.1,5.1c0.8,2,1.1,4.1,1.1,6.2c0,2.3-0.4,4.5-1.3,6.6c-0.9,2-2.1,3.9-3.8,5.3
				c-1.7,1.6-3.8,2.8-6,3.6c-5.1,1.7-10.7,1.7-15.8,0c-2.2-0.8-4.2-2-6-3.6c-1.6-1.5-2.9-3.3-3.8-5.3c-0.9-2-1.3-4.2-1.3-6.4
				c0.1-2.8,0.6-5.6,1.7-8.2c1.3-3.2,3-6.1,5.2-8.7l10.4-12.6H161.4z M142.1,423.7c0,1,0.2,2,0.6,2.9c0.8,1.8,2.2,3.2,4,4
				c1.8,0.8,3.9,0.8,5.8,0c1.8-0.8,3.2-2.2,4-4c0.8-1.8,0.8-3.9,0-5.8c-0.4-0.9-0.9-1.7-1.6-2.3c-0.7-0.7-1.5-1.2-2.3-1.6
				c-1.8-0.8-3.9-0.8-5.8,0c-0.9,0.4-1.7,0.9-2.3,1.6c-0.7,0.7-1.2,1.5-1.6,2.3C142.4,421.7,142.2,422.7,142.1,423.7L142.1,423.7
				L142.1,423.7z"/>
			<circle class="st3" cx="167.3" cy="433.9" r="7.3"/>
			<path class="st2" d="M169.4,429.8c0.3,0,0.7,0,1,0c0,0.4,0,0.7,0,1v5.8c0,0.5,0,0.8,0.1,1.1h-1.3v-0.5h-4v0.5h-1.3
				c0-0.3,0.1-0.7,0.1-1.1v-5.8c0-0.3,0-0.6,0-1c0.3,0,0.7,0.1,1,0L169.4,429.8z M169.1,432.8v-1.9h-4v1.9H169.1z M165.1,433.9v2.2
				h4V434L165.1,433.9z"/>
		</g>
		<line class="st5" x1="64.3" y1="394.1" x2="52.8" y2="439.4"/>
	</g>
	<g id="産技短展">
		<path class="st6" d="M75.4,43.4h61.5c0.4,0,0.7-0.3,0.7-0.7c0,0,0,0,0,0v-7.4c0-0.4-0.3-0.7-0.7-0.7c0,0,0,0,0,0h-17.4v-8.5h15.1
			c0.4,0,0.7-0.3,0.7-0.7l0,0v-7c0-0.4-0.3-0.7-0.7-0.7c0,0,0,0,0,0h-28.3V7.4c0-0.8-0.8-0.7-0.8-0.7c-9.4,1.1-9.6,6-9.6,6v5H63
			c-0.4,0-0.7,0.3-0.7,0.7v7c0,0.4,0.3,0.7,0.7,0.7h19.1v8.5H68.9c-6.5,0-7.2,7.3-7.2,7.3l-7.3,47.5c0,0.4,0.3,0.7,0.7,0.8
			c0,0,0,0,0,0h9c0.4,0,0.7-0.3,0.7-0.7c0,0.1,6.7-43.1,6.7-43.1C71.9,43.9,73.2,43.4,75.4,43.4z M91.8,26.1h18.1v8.5H91.8V26.1z
			 M137.5,81.3h-29.3v-5.7h21.1c0.4,0,0.7-0.3,0.7-0.7c0,0,0,0,0,0v-6.6c0-0.4-0.3-0.7-0.7-0.7l0,0h-21.1V61H131
			c0.4,0,0.7-0.3,0.7-0.7c0,0,0,0,0,0v-6.7c0-0.4-0.3-0.7-0.7-0.7h-22.8v-7c0-0.8-0.8-0.7-0.8-0.7c-7.4,0.9-7.9,6-7.9,6v1.7H84.5
			l0.8-4.8c0-0.4-0.3-0.8-0.8-0.8c0,0,0,0,0,0c-3.3-0.2-7.3,1.8-8,5.1l-1.7,11.1c0,0.4,0.2,0.8,0.6,0.8H82c0.4,0,0.7-0.2,0.8-0.6
			l0.5-2.6h16.1v6.5H80.9c-0.4,0-0.7,0.3-0.7,0.7v6.6c0,0.4,0.3,0.7,0.7,0.7h18.5v5.8H71.1c-0.4,0-0.7,0.3-0.7,0.7v7.3
			c0,0.4,0.3,0.7,0.7,0.7l0,0h66.4c0.4,0,0.7-0.3,0.7-0.7V82C138.2,81.6,137.9,81.3,137.5,81.3L137.5,81.3L137.5,81.3z"/>
		<path class="st6" d="M140.2,182l-19.9-18.1c0,0,12-10.7,13.1-11.8c3.5-3.4,3.5-3.8,3.5-8.8v-14.5c0-0.4-0.3-0.7-0.8-0.7l0,0h-17.9
			v-8.3h19.8c0.4,0,0.8-0.3,0.8-0.8v-7.4c0-0.4-0.3-0.7-0.7-0.7c0,0,0,0,0,0h-19.9v-10.4c0-0.8-0.9-0.7-0.9-0.7
			c-8.7,1.1-8.9,6-8.9,6v5.1H91.8c-0.4,0-0.7,0.3-0.8,0.7v0v7.5c0,0.4,0.3,0.7,0.8,0.8h16.7v8.3H92.4c-0.4,0-0.7,0.3-0.8,0.7l0,0
			v8.4c0,0.4,0.3,0.8,0.8,0.8h33.3c0.5,0,1.2,0,1.2,1.2v3.6c0,0.9-0.3,1.8-1,2.4c-0.6,0.6-13.1,11.7-13.1,11.7l-17.1-15.5
			c-0.7-0.6-1.2-0.2-1.2,0.2v12.7c0,0.4,0.1,0.7,0.4,1l9.7,8.8l-20,17.9c-1,0.9,0,1.1,0,1.1h13.8c0,0,0.6,0,0.8-0.2l13.2-11.7
			l13.1,11.8c0.3,0.3,0.7,0.4,1.1,0.3h13.5C140.7,183.2,140.7,182.4,140.2,182z M87.8,138.1v-10.9c0-0.7-0.6-0.9-1.2-0.3l-6.8,7.3
			v-14.6h5.8c0.4,0,0.7-0.3,0.7-0.7v-7.5c0-0.4-0.3-0.7-0.7-0.7h-5.7v-10.3c0-0.8-0.9-0.7-0.9-0.7c-8.9,1.1-9.1,6-9.1,6v5H56
			c-0.4,0-0.7,0.3-0.7,0.7v7.5c0,0.4,0.3,0.7,0.7,0.7c0,0,0,0,0,0h14.1v22.9L52.9,159c-0.6,0.6-0.3,1.1,0.2,1.1h11.4
			c0.4,0,0.8-0.1,1.1-0.3l4.4-4.5v16.3l-5.3-4c-0.3-0.2-0.7-0.3-1-0.3H52.5c-0.5,0-0.7,0.7-0.2,1.1l14.3,12.3
			c1.9,1.4,4.1,2.2,6.4,2.4h6c0.4,0,0.7-0.3,0.7-0.7v-35.5l7.6-7.8C87.7,138.9,87.9,138.5,87.8,138.1L87.8,138.1L87.8,138.1z"/>
		<path class="st6" d="M90,202.8H64.8L67,192c0.1-0.4-0.1-0.8-0.5-1c-0.1,0-0.2,0-0.3,0c-5-0.2-9.1,4.3-9.5,7.3l0,0l-4.2,21.6
			c0,0.4,0,1.3,0.7,1.3h7.4c0.4,0,0.7-0.3,0.8-0.7c0,0.1,2.2-9,2.2-9h8L68,226.6H56.1c-0.4,0-0.7,0.3-0.7,0.7l0,0v8.5
			c0,0.4,0.3,0.7,0.7,0.7h9.3L56,273.4c-0.1,0.4,0.1,0.8,0.5,1c0.1,0,0.1,0,0.2,0h9.1c0.4,0,0.7-0.2,0.8-0.6l4.3-17.6l8.8,12.3
			c0.2,0.3,0.7,0.4,1,0.2l8.3-4.5c0.3-0.2,0.4-0.7,0.2-1l-14.7-20.1l1.7-6.6h14c0.4,0,0.7-0.3,0.7-0.7c0,0,0,0,0,0v-8.5
			c0-0.4-0.3-0.7-0.7-0.7H78.6l3.6-15.2H90c0.4,0,0.7-0.3,0.7-0.7c0,0,0,0,0,0v-7.1C90.7,203.3,90.5,202.8,90,202.8z M94.6,208.1
			h43.3c0.4,0,0.7-0.3,0.7-0.7c0,0,0,0,0,0v-7.7c0-0.4-0.3-0.7-0.7-0.7c0,0,0,0,0,0H94.6c-0.4,0-0.7,0.3-0.7,0.7c0,0,0,0,0,0v7.7
			C93.9,207.8,94.2,208.1,94.6,208.1L94.6,208.1L94.6,208.1z M139.2,264.5h-14.3c0.7-1,7.8-11.6,7.8-11.6c2.3-3.1,3.6-6.8,3.5-10.7
			v-27.5c0-0.4-0.3-0.7-0.7-0.7h-33c-3.7,0-6.7,2.6-6.7,6v24.5c0,0.4,0.3,0.7,0.7,0.7c0,0,0,0,0,0h30.1c0,1.7-2.4,4.9-2.4,4.9
			l-10.7,14.5h-2.9l-4.8-15.5c0,0-0.2-0.7-0.8-0.5c-3.2,1.1-6.2,4.5-6.2,7.8c0,0.5,0.1,0.9,0.2,1.4l2.1,6.9h-9.3
			c-0.4,0-0.7,0.3-0.7,0.7v8.4c0,0.4,0.3,0.7,0.7,0.7h47.5c0.4,0,0.7-0.3,0.7-0.7l0,0v-8.4C140,264.8,139.6,264.5,139.2,264.5z
			 M104.5,237.4v-15.6h22.1v15.6H104.5z"/>
		<path class="st6" d="M136.6,332.9h-17.7v-7h13.9c0.4,0,0.8-0.3,0.8-0.8c0,0,0,0,0,0v-7.3c0-0.4-0.4-0.8-0.8-0.8h-13.9v-4.8h8.9
			c3.3-0.1,6-2.7,6.2-6c0-3,0-16.9,0-16.9s0,0,0-0.1v-0.5c0-0.4-0.4-0.8-0.8-0.8c0,0-61.3,0-64.9,0s-6.1,2.3-6.5,6.6
			c-0.2,3-5.3,75.9-5.3,75.9c0,0.4,0.3,0.8,0.7,0.9h9.1c0.4,0,0.8-0.3,0.8-0.8c0,0,0,0,0,0l2.1-28.4h9.8v19.3l-7.1,1.2
			c-0.4,0.1-0.8,0.5-0.7,0.9c0,0,0,0,0,0l-0.5,6.8c0.1,0.4,0.5,0.7,1,0.6l34-5.8c0.4-0.1,0.7-0.5,0.7-0.9c0,0,0,0,0,0v-6.6
			c-0.1-0.4-0.5-0.7-0.9-0.7c0,0-0.1,0-0.1,0l-16.7,2.8v-17.7H98c0.1,0.1,0.1,0.2,0.2,0.3l29,28.6c0.2,0.2,0.5,0.3,0.8,0.2h11.3
			c0.5,0,0.5-0.6,0.2-0.9L126,357.1l11.7-9c0.3-0.3,0.3-0.8,0-1.2l-12.1,0c-1.8,1.5-3.6,3-5.6,4.3l-9.2-8.9h25.7
			c0.5,0,0.8-0.4,0.8-0.8v-7.7C137.4,333.2,137.1,332.9,136.6,332.9z M85.1,317H74.3c-0.4,0-0.8,0.3-0.8,0.8c0,0,0,0,0,0v7.3
			c0,0.4,0.4,0.8,0.8,0.8c0,0,0,0,0,0h10.8v7H69.7l1.6-20.6h13.8V317z M71.8,303.3l0.5-5.4H126v5.4H71.8z M109.2,312.2v4.8H94.8
			v-4.8H109.2z M94.8,325.9h14.5v7H94.8V325.9z"/>
	</g>
	<g id="令和3年度">
		<path class="st7" d="M183.6,11.7c-4.3-1.4-8.2-3.9-11.3-7.2c-3,3.2-6.6,5.7-10.6,7.4l-1.1-2.2c4.4-1.5,9.2-5.2,11-8.1l2.9,0.3
			c-0.3,0.1-0.6,0.4-0.8,0.7c1.7,2.3,5.6,5.3,11,6.9L183.6,11.7z M178.5,23.6h-2.9l-0.9-2.3c1.1,0.2,2.2,0.3,3.3,0.2
			c1.3,0,1.8-0.6,1.8-1.9V16h-7.5v9.8H170V16h-7.2v-2h19.1v6.2C181.9,22.7,180.7,23.6,178.5,23.6z M167,11.4v-2h11.3v2L167,11.4
			L167,11.4z"/>
		<path class="st7" d="M171.5,46.7l-3.7-3.8v11.4h-2.1V43.9c-1,2.2-2.4,4.3-4,6.1l-1.4-1.8c2.3-2.4,4.1-5.4,5.2-8.6h-4.4v-2h4.6
			v-3.6c-1.3,0.3-2.6,0.4-3.9,0.5l-0.6-1.9c3.2-0.2,6.3-0.8,9.3-1.8l1.2,2c-0.1,0-0.2,0-0.3,0c-1.2,0.1-2.4,0.4-3.6,0.8v4h4.6v2
			h-4.6v0.9l5,4.6L171.5,46.7z M181.7,54.1v-1.4h-5.8v1.4h-2.2V33.5h10v20.6L181.7,54.1L181.7,54.1z M181.7,35.5h-5.8v15.1h5.8V35.5
			z"/>
		<path class="st7" d="M171.3,73.6v-2.4h2.4c1.2,0,2.3-0.4,3.2-1.2c0.8-0.8,1.3-1.9,1.3-3.1c0-1.1-0.5-2.2-1.3-2.9
			c-0.9-0.8-2-1.2-3.2-1.1c-0.8,0-1.5,0.2-2.3,0.5c-0.6,0.3-1.1,0.7-1.6,1.2c-0.4,0.5-0.6,1.1-0.6,1.7h-2.6c0.1-1.5,0.8-3,2-4
			c1.4-1.2,3.2-1.8,5.1-1.7c1.9-0.1,3.7,0.5,5.2,1.7c1.3,1,2,2.6,2.1,4.2c0.1,2.7-1.7,5.1-4.4,5.7v0.2c0.6,0,1.1,0.2,1.6,0.4
			c0.6,0.3,1.1,0.6,1.6,1c0.6,0.5,1,1.1,1.3,1.7c1.2,2.6,0.5,5.6-1.7,7.5c-1.7,1.4-3.8,2.1-6,2c-1.9,0.1-3.8-0.5-5.4-1.7
			c-1.3-1-2.1-2.5-2.2-4.2h2.6c0.1,1,0.7,1.9,1.6,2.4c1,0.7,2.2,1,3.5,1c1.4,0.1,2.8-0.4,3.9-1.3c1-0.8,1.5-2.1,1.4-3.3
			c0-1.2-0.5-2.4-1.4-3.2c-1-0.8-2.4-1.3-3.7-1.2L171.3,73.6z"/>
		<path class="st7" d="M175.3,109.3v5h-2.2v-5h-12.4v-2.1h3.8v-6.7h8.6v-4.4h-7.5c-0.8,1.6-1.7,3-2.7,4.4l-1.8-1.5
			c1.9-2.5,3.4-5.3,4.4-8.3l2.6,0.5c-0.7,0-1.3,2.1-1.6,2.8h17.1v2.1h-8.3v4.4h7.4v2h-7.4v4.7h9.2v2.1L175.3,109.3L175.3,109.3z
			 M173.1,102.5h-6.4v4.7h6.4V102.5z"/>
		<path class="st7" d="M165.3,123.4v7.8c0,3.6-0.8,8.5-3.1,11.9l-1.9-1.2c1.8-2.4,2.8-6.8,2.8-10.9v-9.6h9.3v-2.3h2.6
			c-0.3,0.2-0.4,0.5-0.4,1.5v0.8h9.4v1.9L165.3,123.4z M182.7,142.9c-2.7-0.4-5.3-1.2-7.7-2.4c-2.7,1.3-5.5,2.1-8.4,2.4l-0.8-1.8
			c2.5-0.2,5-0.8,7.4-1.8c-1.1-0.8-2.2-1.7-3.1-2.7l1.4-1c1,1.1,2.2,2.1,3.5,2.9c1.5-0.8,2.9-1.9,4.1-3.2h-11.7v-1.8h14v1.8
			c-1.3,1.6-2.8,3-4.5,4.1c2.1,0.9,4.4,1.4,6.7,1.6L182.7,142.9z M179.8,127.8v4H170v-4h-4.1V126h4.1v-2h2.4
			c-0.3,0.2-0.4,0.4-0.4,1.2v0.9h5.8V124h2.4c-0.3,0.2-0.4,0.4-0.4,1.2v0.9h3.5v1.7L179.8,127.8z M177.8,127.8H172v2.5h5.8
			L177.8,127.8z"/>
		<path class="st7" d="M173.8,195.3v5.9h-2.3v-5.9h-10.7v-2.1h10.7v-2.8h2.6c-0.3,0.3-0.4,0.6-0.4,1.7v1.1h10.6v2.1L173.8,195.3
			L173.8,195.3z M170.4,190.4c-1.3-0.8-2.5-1.8-3.6-2.9c-1,1.5-2.3,2.7-3.8,3.8l-1.4-1.6c2.6-1.7,4.5-4.2,5.5-7.1l2.3,0.8
			c-0.5,0.1-1.3,2.1-1.6,2.6c1.2,1.1,2.5,2,3.9,2.8L170.4,190.4z M161.9,182.2v-2h9.6v-2.8h2.7c-0.4,0.2-0.4,0.5-0.4,1.5v1.3h9.6v2
			L161.9,182.2L161.9,182.2z M182.3,190.9c-1.6-1-3.1-2.1-4.5-3.4c-0.9,1.2-2,2.2-3.3,3.1l-1.5-1.6c2.4-1.5,4.2-3.8,5-6.5l2.3,0.8
			c-0.5,0.1-1.3,2.2-1.6,2.7c1.4,1.3,3,2.4,4.7,3.2L182.3,190.9z"/>
		<path class="st7" d="M183.5,229.4c-3.6-1.2-7-3.2-9.8-5.8v5.7h-2.2v-5.6c-2.8,2.6-6.1,4.6-9.7,5.7l-1.1-1.9
			c3.3-0.8,6.3-2.4,8.9-4.5h-8.8v-1.6h10.7v-2.1h-8.4v-1.6h8.4v-2.2H162v-1.7h6.2c-0.3-1-0.8-2-1.3-3H161V209h3.6
			c-0.5-0.9-1-1.7-1.6-2.4l1.7-0.8c0.8,1,1.5,2.1,2.1,3.3h2v-3.5h2.4c-0.3,0.1-0.4,0.5-0.4,1v2.5h3.5v-3.6h2.4
			c-0.3,0.1-0.4,0.5-0.4,1v2.5h2.5l1.5-3.3l2.2,0.8c-0.4,0.1-0.6,0.2-1,1.1l-0.7,1.4h3.3v1.8h-5.8l-1.2,3h6v1.6h-9.5v2.1h8.4v1.6
			h-8.4v2.2h10.7v1.7h-8.8c2.6,2.1,5.7,3.6,8.9,4.5L183.5,229.4z M169.2,210.8c0.5,1,0.9,2,1.2,3h4.6l1.2-3H169.2z"/>
		<path class="st7" d="M166.5,237.3c-0.3,2-0.9,4-1.6,6h4.5v11.9h-5v1.6h-1.8v-9.1c-0.4,0.6-0.9,1.3-1.4,1.8l-1-2.1
			c2.2-2.3,3.8-6.7,4.3-10.1h-3.3v-2h9v2H166.5L166.5,237.3z M167.6,245.2h-3.3v7.9h3.3V245.2z M181.8,246.2v11.6h-2.1v-11.6h-4.2
			c-0.2,4.3-1.3,8.4-3.8,11.5l-1.7-1.3c2.2-2.3,3.3-5.9,3.5-10.2h-2.8v-2h2.8v-7h-2.2v-2.1h12.4v2.1h-2v7h2.7v2L181.8,246.2
			L181.8,246.2z M179.8,237.3h-4.1v7h4.1L179.8,237.3L179.8,237.3z"/>
		<path class="st7" d="M182.4,286.1h-3.7c-1.2,0.1-2.3-0.8-2.4-2c0-0.1,0-0.3,0-0.4v-6h-5.9c-1.1,4.2-3.9,7.1-8.9,8.8l-1.1-2
			c4.3-1.2,6.7-3.3,7.7-6.8h-6v-2.1h6.4c0.1-1,0.2-1.9,0.2-2.9l2.6,0.1c-0.6,0.6-0.5,2-0.6,2.8h7.6v7.5c-0.1,0.4,0.2,0.8,0.7,0.9
			c0.1,0,0.1,0,0.2,0h2.8c1,0,1.1-0.4,1.4-3.3l1.8,0.8C185,285.1,184.3,286.1,182.4,286.1z M182.4,268.8v-2.3h-6.2v3.2
			c0,0.7,0.3,1.1,1,1.1h3.2c0.9,0,1.2-0.6,1.3-1.6l1.9,0.8c-0.4,1.8-1.1,2.6-2.8,2.6h-4.2c-1.8,0-2.6-0.9-2.6-2.5v-3.5h-11.2v2.3
			h-2.1v-4.2h10.8v-2h2.6c-0.3,0.2-0.4,0.4-0.4,1.3v0.7h10.8v4.2L182.4,268.8z M170.9,267.9c-0.3,0-0.6,0.2-0.9,0.7
			c-1.9,2.6-4.6,4.5-7.7,5.3l-1.1-1.8c3.9-0.9,6.4-3,7.5-5.3L170.9,267.9L170.9,267.9z"/>
		<path class="st7" d="M168.5,291.7c-0.7,2.4-1.7,4.8-2.9,7h1.2c-0.3,0.2-0.3,0.5-0.3,1.5V314h-2.2v-13c-0.9,1.4-1.8,2.6-2.9,3.8
			l-1.3-2c2.8-2.6,5.8-8.6,6.5-12.6l2.8,0.4C168.9,290.7,168.7,291.1,168.5,291.7z M177.9,296.1v3.7h5.2v2.1h-5.2v3.8h5.2v2.2h-5.2
			v6.2h-2.1v-17.9h-2.4c-0.9,2.3-2,4.5-3.2,6.5l-1.8-1.4c2.1-3.4,3.7-7.1,4.7-10.9l2.7,0.5c-0.7,0.1-1.2,2.4-1.5,3.1h10.3v2.2
			L177.9,296.1z"/>
		<path class="st7" d="M169.5,341v-1.1h-6v1.1h-2v-11h10v11H169.5z M169.5,331.9h-6v6.1h6V331.9z M165.2,327.6v-9.5H180v9.5H165.2z
			 M177.7,320h-10.2v5.8h10.2V320z M181.8,341v-1.1h-6v1.1h-2v-11h10v11H181.8z M181.8,331.9h-6v6.1h6V331.9z"/>
		<path class="st7" d="M165.8,352.7v2.6c0,5.8-1.1,10.2-3.4,13.7l-1.9-1.2c2.1-2.8,3.1-7,3.1-12.4v-8.8h19.6v6.1L165.8,352.7z
			 M183.7,369.5c-4.1-0.9-7.5-3.6-9.2-7.4h-3.3v4.8c1.8-0.3,3.6-0.7,5.4-1.2v1.8c-3,0.7-6,1.3-9,1.7c-1,0.1-1.2,0.2-1.4,0.5
			l-0.4-2.2c1.1,0,2.3-0.2,3.5-0.3v-5.1h-3.7v-1.7h4.8v-3h-3.8v-1.8h3.8v-2.3h2.4c-0.3,0.1-0.4,0.3-0.4,1.2v1.1h4.7v-2.3h2.4
			c-0.3,0.1-0.4,0.3-0.4,1.2v1.1h4v1.8h-4v3h4.7v1.7h-2.3l1.3,1.1H183c-0.3,0-0.6,0.2-1.1,0.7l-2,2c1.5,0.9,3,1.5,4.7,1.9
			L183.7,369.5z M181.1,348.3h-15.3v2.7h15.3L181.1,348.3z M177.2,357.4h-4.7v3h4.7V357.4z M176.4,362.1c0.6,1.1,1.3,2.1,2.3,2.9
			l2.9-2.9H176.4z"/>
		<path class="st1" d="M183.6,11.7c-4.3-1.4-8.2-3.9-11.3-7.2c-3,3.2-6.6,5.7-10.6,7.4l-1.1-2.2c4.4-1.5,9.2-5.2,11-8.1l2.9,0.3
			c-0.3,0.1-0.6,0.4-0.8,0.7c1.7,2.3,5.6,5.3,11,6.9L183.6,11.7z M178.5,23.6h-2.9l-0.9-2.3c1.1,0.2,2.2,0.3,3.3,0.2
			c1.3,0,1.8-0.6,1.8-1.9V16h-7.5v9.8H170V16h-7.2v-2h19.1v6.2C181.9,22.7,180.7,23.6,178.5,23.6z M167,11.4v-2h11.3v2L167,11.4
			L167,11.4z"/>
		<path class="st1" d="M171.5,46.7l-3.7-3.8v11.4h-2.1V43.9c-1,2.2-2.4,4.3-4,6.1l-1.4-1.8c2.3-2.4,4.1-5.4,5.2-8.6h-4.4v-2h4.6
			v-3.6c-1.3,0.3-2.6,0.4-3.9,0.5l-0.6-1.9c3.2-0.2,6.3-0.8,9.3-1.8l1.2,2c-0.1,0-0.2,0-0.3,0c-1.2,0.1-2.4,0.4-3.6,0.8v4h4.6v2
			h-4.6v0.9l5,4.6L171.5,46.7z M181.7,54.1v-1.4h-5.8v1.4h-2.2V33.5h10v20.6L181.7,54.1L181.7,54.1z M181.7,35.5h-5.8v15.1h5.8V35.5
			z"/>
		<path class="st1" d="M171.3,73.6v-2.4h2.4c1.2,0,2.3-0.4,3.2-1.2c0.8-0.8,1.3-1.9,1.3-3.1c0-1.1-0.5-2.2-1.3-2.9
			c-0.9-0.8-2-1.2-3.2-1.1c-0.8,0-1.5,0.2-2.3,0.5c-0.6,0.3-1.1,0.7-1.6,1.2c-0.4,0.5-0.6,1.1-0.6,1.7h-2.6c0.1-1.5,0.8-3,2-4
			c1.4-1.2,3.2-1.8,5.1-1.7c1.9-0.1,3.7,0.5,5.2,1.7c1.3,1,2,2.6,2.1,4.2c0.1,2.7-1.7,5.1-4.4,5.7v0.2c0.6,0,1.1,0.2,1.6,0.4
			c0.6,0.3,1.1,0.6,1.6,1c0.6,0.5,1,1.1,1.3,1.7c1.2,2.6,0.5,5.6-1.7,7.5c-1.7,1.4-3.8,2.1-6,2c-1.9,0.1-3.8-0.5-5.4-1.7
			c-1.3-1-2.1-2.5-2.2-4.2h2.6c0.1,1,0.7,1.9,1.6,2.4c1,0.7,2.2,1,3.5,1c1.4,0.1,2.8-0.4,3.9-1.3c1-0.8,1.5-2.1,1.4-3.3
			c0-1.2-0.5-2.4-1.4-3.2c-1-0.8-2.4-1.3-3.7-1.2L171.3,73.6z"/>
		<path class="st1" d="M175.3,109.3v5h-2.2v-5h-12.4v-2.1h3.8v-6.7h8.6v-4.4h-7.5c-0.8,1.6-1.7,3-2.7,4.4l-1.8-1.5
			c1.9-2.5,3.4-5.3,4.4-8.3l2.6,0.5c-0.7,0-1.3,2.1-1.6,2.8h17.1v2.1h-8.3v4.4h7.4v2h-7.4v4.7h9.2v2.1L175.3,109.3L175.3,109.3z
			 M173.1,102.5h-6.4v4.7h6.4V102.5z"/>
		<path class="st1" d="M165.3,123.4v7.8c0,3.6-0.8,8.5-3.1,11.9l-1.9-1.2c1.8-2.4,2.8-6.8,2.8-10.9v-9.6h9.3v-2.3h2.6
			c-0.3,0.2-0.4,0.5-0.4,1.5v0.8h9.4v1.9L165.3,123.4z M182.7,142.9c-2.7-0.4-5.3-1.2-7.7-2.4c-2.7,1.3-5.5,2.1-8.4,2.4l-0.8-1.8
			c2.5-0.2,5-0.8,7.4-1.8c-1.1-0.8-2.2-1.7-3.1-2.7l1.4-1c1,1.1,2.2,2.1,3.5,2.9c1.5-0.8,2.9-1.9,4.1-3.2h-11.7v-1.8h14v1.8
			c-1.3,1.6-2.8,3-4.5,4.1c2.1,0.9,4.4,1.4,6.7,1.6L182.7,142.9z M179.8,127.8v4H170v-4h-4.1V126h4.1v-2h2.4
			c-0.3,0.2-0.4,0.4-0.4,1.2v0.9h5.8V124h2.4c-0.3,0.2-0.4,0.4-0.4,1.2v0.9h3.5v1.7L179.8,127.8z M177.8,127.8H172v2.5h5.8
			L177.8,127.8z"/>
		<path class="st1" d="M173.8,195.3v5.9h-2.3v-5.9h-10.7v-2.1h10.7v-2.8h2.6c-0.3,0.3-0.4,0.6-0.4,1.7v1.1h10.6v2.1L173.8,195.3
			L173.8,195.3z M170.4,190.4c-1.3-0.8-2.5-1.8-3.6-2.9c-1,1.5-2.3,2.7-3.8,3.8l-1.4-1.6c2.6-1.7,4.5-4.2,5.5-7.1l2.3,0.8
			c-0.5,0.1-1.3,2.1-1.6,2.6c1.2,1.1,2.5,2,3.9,2.8L170.4,190.4z M161.9,182.2v-2h9.6v-2.8h2.7c-0.4,0.2-0.4,0.5-0.4,1.5v1.3h9.6v2
			L161.9,182.2L161.9,182.2z M182.3,190.9c-1.6-1-3.1-2.1-4.5-3.4c-0.9,1.2-2,2.2-3.3,3.1l-1.5-1.6c2.4-1.5,4.2-3.8,5-6.5l2.3,0.8
			c-0.5,0.1-1.3,2.2-1.6,2.7c1.4,1.3,3,2.4,4.7,3.2L182.3,190.9z"/>
		<path class="st1" d="M183.5,229.4c-3.6-1.2-7-3.2-9.8-5.8v5.7h-2.2v-5.6c-2.8,2.6-6.1,4.6-9.7,5.7l-1.1-1.9
			c3.3-0.8,6.3-2.4,8.9-4.5h-8.8v-1.6h10.7v-2.1h-8.4v-1.6h8.4v-2.2H162v-1.7h6.2c-0.3-1-0.8-2-1.3-3H161V209h3.6
			c-0.5-0.9-1-1.7-1.6-2.4l1.7-0.8c0.8,1,1.5,2.1,2.1,3.3h2v-3.5h2.4c-0.3,0.1-0.4,0.5-0.4,1v2.5h3.5v-3.6h2.4
			c-0.3,0.1-0.4,0.5-0.4,1v2.5h2.5l1.5-3.3l2.2,0.8c-0.4,0.1-0.6,0.2-1,1.1l-0.7,1.4h3.3v1.8h-5.8l-1.2,3h6v1.6h-9.5v2.1h8.4v1.6
			h-8.4v2.2h10.7v1.7h-8.8c2.6,2.1,5.7,3.6,8.9,4.5L183.5,229.4z M169.2,210.8c0.5,1,0.9,2,1.2,3h4.6l1.2-3H169.2z"/>
		<path class="st1" d="M166.5,237.3c-0.3,2-0.9,4-1.6,6h4.5v11.9h-5v1.6h-1.8v-9.1c-0.4,0.6-0.9,1.3-1.4,1.8l-1-2.1
			c2.2-2.3,3.8-6.7,4.3-10.1h-3.3v-2h9v2H166.5L166.5,237.3z M167.6,245.2h-3.3v7.9h3.3V245.2z M181.8,246.2v11.6h-2.1v-11.6h-4.2
			c-0.2,4.3-1.3,8.4-3.8,11.5l-1.7-1.3c2.2-2.3,3.3-5.9,3.5-10.2h-2.8v-2h2.8v-7h-2.2v-2.1h12.4v2.1h-2v7h2.7v2L181.8,246.2
			L181.8,246.2z M179.8,237.3h-4.1v7h4.1L179.8,237.3L179.8,237.3z"/>
		<path class="st1" d="M182.4,286.1h-3.7c-1.2,0.1-2.3-0.8-2.4-2c0-0.1,0-0.3,0-0.4v-6h-5.9c-1.1,4.2-3.9,7.1-8.9,8.8l-1.1-2
			c4.3-1.2,6.7-3.3,7.7-6.8h-6v-2.1h6.4c0.1-1,0.2-1.9,0.2-2.9l2.6,0.1c-0.6,0.6-0.5,2-0.6,2.8h7.6v7.5c-0.1,0.4,0.2,0.8,0.7,0.9
			c0.1,0,0.1,0,0.2,0h2.8c1,0,1.1-0.4,1.4-3.3l1.8,0.8C185,285.1,184.3,286.1,182.4,286.1z M182.4,268.8v-2.3h-6.2v3.2
			c0,0.7,0.3,1.1,1,1.1h3.2c0.9,0,1.2-0.6,1.3-1.6l1.9,0.8c-0.4,1.8-1.1,2.6-2.8,2.6h-4.2c-1.8,0-2.6-0.9-2.6-2.5v-3.5h-11.2v2.3
			h-2.1v-4.2h10.8v-2h2.6c-0.3,0.2-0.4,0.4-0.4,1.3v0.7h10.8v4.2L182.4,268.8z M170.9,267.9c-0.3,0-0.6,0.2-0.9,0.7
			c-1.9,2.6-4.6,4.5-7.7,5.3l-1.1-1.8c3.9-0.9,6.4-3,7.5-5.3L170.9,267.9L170.9,267.9z"/>
		<path class="st1" d="M168.5,291.7c-0.7,2.4-1.7,4.8-2.9,7h1.2c-0.3,0.2-0.3,0.5-0.3,1.5V314h-2.2v-13c-0.9,1.4-1.8,2.6-2.9,3.8
			l-1.3-2c2.8-2.6,5.8-8.6,6.5-12.6l2.8,0.4C168.9,290.7,168.7,291.1,168.5,291.7z M177.9,296.1v3.7h5.2v2.1h-5.2v3.8h5.2v2.2h-5.2
			v6.2h-2.1v-17.9h-2.4c-0.9,2.3-2,4.5-3.2,6.5l-1.8-1.4c2.1-3.4,3.7-7.1,4.7-10.9l2.7,0.5c-0.7,0.1-1.2,2.4-1.5,3.1h10.3v2.2
			L177.9,296.1z"/>
		<path class="st1" d="M169.5,341v-1.1h-6v1.1h-2v-11h10v11H169.5z M169.5,331.9h-6v6.1h6V331.9z M165.2,327.6v-9.5H180v9.5H165.2z
			 M177.7,320h-10.2v5.8h10.2V320z M181.8,341v-1.1h-6v1.1h-2v-11h10v11H181.8z M181.8,331.9h-6v6.1h6V331.9z"/>
		<path class="st1" d="M165.8,352.7v2.6c0,5.8-1.1,10.2-3.4,13.7l-1.9-1.2c2.1-2.8,3.1-7,3.1-12.4v-8.8h19.6v6.1L165.8,352.7z
			 M183.7,369.5c-4.1-0.9-7.5-3.6-9.2-7.4h-3.3v4.8c1.8-0.3,3.6-0.7,5.4-1.2v1.8c-3,0.7-6,1.3-9,1.7c-1,0.1-1.2,0.2-1.4,0.5
			l-0.4-2.2c1.1,0,2.3-0.2,3.5-0.3v-5.1h-3.7v-1.7h4.8v-3h-3.8v-1.8h3.8v-2.3h2.4c-0.3,0.1-0.4,0.3-0.4,1.2v1.1h4.7v-2.3h2.4
			c-0.3,0.1-0.4,0.3-0.4,1.2v1.1h4v1.8h-4v3h4.7v1.7h-2.3l1.3,1.1H183c-0.3,0-0.6,0.2-1.1,0.7l-2,2c1.5,0.9,3,1.5,4.7,1.9
			L183.7,369.5z M181.1,348.3h-15.3v2.7h15.3L181.1,348.3z M177.2,357.4h-4.7v3h4.7V357.4z M176.4,362.1c0.6,1.1,1.3,2.1,2.3,2.9
			l2.9-2.9H176.4z"/>
		<path class="st2" d="M183.6,11.7c-4.3-1.4-8.2-3.9-11.3-7.2c-3,3.2-6.6,5.7-10.6,7.4l-1.1-2.2c4.4-1.5,9.2-5.2,11-8.1l2.9,0.3
			c-0.3,0.1-0.6,0.4-0.8,0.7c1.7,2.3,5.6,5.3,11,6.9L183.6,11.7z M178.5,23.6h-2.9l-0.9-2.3c1.1,0.2,2.2,0.3,3.3,0.2
			c1.3,0,1.8-0.6,1.8-1.9V16h-7.5v9.8H170V16h-7.2v-2h19.1v6.2C181.9,22.7,180.7,23.6,178.5,23.6z M167,11.4v-2h11.3v2L167,11.4
			L167,11.4z"/>
		<path class="st2" d="M171.5,46.7l-3.7-3.8v11.4h-2.1V43.9c-1,2.2-2.4,4.3-4,6.1l-1.4-1.8c2.3-2.4,4.1-5.4,5.2-8.6h-4.4v-2h4.6
			v-3.6c-1.3,0.3-2.6,0.4-3.9,0.5l-0.6-1.9c3.2-0.2,6.3-0.8,9.3-1.8l1.2,2c-0.1,0-0.2,0-0.3,0c-1.2,0.1-2.4,0.4-3.6,0.8v4h4.6v2
			h-4.6v0.9l5,4.6L171.5,46.7z M181.7,54.1v-1.4h-5.8v1.4h-2.2V33.5h10v20.6L181.7,54.1L181.7,54.1z M181.7,35.5h-5.8v15.1h5.8V35.5
			z"/>
		<path class="st2" d="M171.3,73.6v-2.4h2.4c1.2,0,2.3-0.4,3.2-1.2c0.8-0.8,1.3-1.9,1.3-3.1c0-1.1-0.5-2.2-1.3-2.9
			c-0.9-0.8-2-1.2-3.2-1.1c-0.8,0-1.5,0.2-2.3,0.5c-0.6,0.3-1.1,0.7-1.6,1.2c-0.4,0.5-0.6,1.1-0.6,1.7h-2.6c0.1-1.5,0.8-3,2-4
			c1.4-1.2,3.2-1.8,5.1-1.7c1.9-0.1,3.7,0.5,5.2,1.7c1.3,1,2,2.6,2.1,4.2c0.1,2.7-1.7,5.1-4.4,5.7v0.2c0.6,0,1.1,0.2,1.6,0.4
			c0.6,0.3,1.1,0.6,1.6,1c0.6,0.5,1,1.1,1.3,1.7c1.2,2.6,0.5,5.6-1.7,7.5c-1.7,1.4-3.8,2.1-6,2c-1.9,0.1-3.8-0.5-5.4-1.7
			c-1.3-1-2.1-2.5-2.2-4.2h2.6c0.1,1,0.7,1.9,1.6,2.4c1,0.7,2.2,1,3.5,1c1.4,0.1,2.8-0.4,3.9-1.3c1-0.8,1.5-2.1,1.4-3.3
			c0-1.2-0.5-2.4-1.4-3.2c-1-0.8-2.4-1.3-3.7-1.2L171.3,73.6z"/>
		<path class="st2" d="M175.3,109.3v5h-2.2v-5h-12.4v-2.1h3.8v-6.7h8.6v-4.4h-7.5c-0.8,1.6-1.7,3-2.7,4.4l-1.8-1.5
			c1.9-2.5,3.4-5.3,4.4-8.3l2.6,0.5c-0.7,0-1.3,2.1-1.6,2.8h17.1v2.1h-8.3v4.4h7.4v2h-7.4v4.7h9.2v2.1L175.3,109.3L175.3,109.3z
			 M173.1,102.5h-6.4v4.7h6.4V102.5z"/>
		<path class="st2" d="M165.3,123.4v7.8c0,3.6-0.8,8.5-3.1,11.9l-1.9-1.2c1.8-2.4,2.8-6.8,2.8-10.9v-9.6h9.3v-2.3h2.6
			c-0.3,0.2-0.4,0.5-0.4,1.5v0.8h9.4v1.9L165.3,123.4z M182.7,142.9c-2.7-0.4-5.3-1.2-7.7-2.4c-2.7,1.3-5.5,2.1-8.4,2.4l-0.8-1.8
			c2.5-0.2,5-0.8,7.4-1.8c-1.1-0.8-2.2-1.7-3.1-2.7l1.4-1c1,1.1,2.2,2.1,3.5,2.9c1.5-0.8,2.9-1.9,4.1-3.2h-11.7v-1.8h14v1.8
			c-1.3,1.6-2.8,3-4.5,4.1c2.1,0.9,4.4,1.4,6.7,1.6L182.7,142.9z M179.8,127.8v4H170v-4h-4.1V126h4.1v-2h2.4
			c-0.3,0.2-0.4,0.4-0.4,1.2v0.9h5.8V124h2.4c-0.3,0.2-0.4,0.4-0.4,1.2v0.9h3.5v1.7L179.8,127.8z M177.8,127.8H172v2.5h5.8
			L177.8,127.8z"/>
		<path class="st2" d="M173.8,195.3v5.9h-2.3v-5.9h-10.7v-2.1h10.7v-2.8h2.6c-0.3,0.3-0.4,0.6-0.4,1.7v1.1h10.6v2.1L173.8,195.3
			L173.8,195.3z M170.4,190.4c-1.3-0.8-2.5-1.8-3.6-2.9c-1,1.5-2.3,2.7-3.8,3.8l-1.4-1.6c2.6-1.7,4.5-4.2,5.5-7.1l2.3,0.8
			c-0.5,0.1-1.3,2.1-1.6,2.6c1.2,1.1,2.5,2,3.9,2.8L170.4,190.4z M161.9,182.2v-2h9.6v-2.8h2.7c-0.4,0.2-0.4,0.5-0.4,1.5v1.3h9.6v2
			L161.9,182.2L161.9,182.2z M182.3,190.9c-1.6-1-3.1-2.1-4.5-3.4c-0.9,1.2-2,2.2-3.3,3.1l-1.5-1.6c2.4-1.5,4.2-3.8,5-6.5l2.3,0.8
			c-0.5,0.1-1.3,2.2-1.6,2.7c1.4,1.3,3,2.4,4.7,3.2L182.3,190.9z"/>
		<path class="st2" d="M183.5,229.4c-3.6-1.2-7-3.2-9.8-5.8v5.7h-2.2v-5.6c-2.8,2.6-6.1,4.6-9.7,5.7l-1.1-1.9
			c3.3-0.8,6.3-2.4,8.9-4.5h-8.8v-1.6h10.7v-2.1h-8.4v-1.6h8.4v-2.2H162v-1.7h6.2c-0.3-1-0.8-2-1.3-3H161V209h3.6
			c-0.5-0.9-1-1.7-1.6-2.4l1.7-0.8c0.8,1,1.5,2.1,2.1,3.3h2v-3.5h2.4c-0.3,0.1-0.4,0.5-0.4,1v2.5h3.5v-3.6h2.4
			c-0.3,0.1-0.4,0.5-0.4,1v2.5h2.5l1.5-3.3l2.2,0.8c-0.4,0.1-0.6,0.2-1,1.1l-0.7,1.4h3.3v1.8h-5.8l-1.2,3h6v1.6h-9.5v2.1h8.4v1.6
			h-8.4v2.2h10.7v1.7h-8.8c2.6,2.1,5.7,3.6,8.9,4.5L183.5,229.4z M169.2,210.8c0.5,1,0.9,2,1.2,3h4.6l1.2-3H169.2z"/>
		<path class="st2" d="M166.5,237.3c-0.3,2-0.9,4-1.6,6h4.5v11.9h-5v1.6h-1.8v-9.1c-0.4,0.6-0.9,1.3-1.4,1.8l-1-2.1
			c2.2-2.3,3.8-6.7,4.3-10.1h-3.3v-2h9v2H166.5L166.5,237.3z M167.6,245.2h-3.3v7.9h3.3V245.2z M181.8,246.2v11.6h-2.1v-11.6h-4.2
			c-0.2,4.3-1.3,8.4-3.8,11.5l-1.7-1.3c2.2-2.3,3.3-5.9,3.5-10.2h-2.8v-2h2.8v-7h-2.2v-2.1h12.4v2.1h-2v7h2.7v2L181.8,246.2
			L181.8,246.2z M179.8,237.3h-4.1v7h4.1L179.8,237.3L179.8,237.3z"/>
		<path class="st2" d="M182.4,286.1h-3.7c-1.2,0.1-2.3-0.8-2.4-2c0-0.1,0-0.3,0-0.4v-6h-5.9c-1.1,4.2-3.9,7.1-8.9,8.8l-1.1-2
			c4.3-1.2,6.7-3.3,7.7-6.8h-6v-2.1h6.4c0.1-1,0.2-1.9,0.2-2.9l2.6,0.1c-0.6,0.6-0.5,2-0.6,2.8h7.6v7.5c-0.1,0.4,0.2,0.8,0.7,0.9
			c0.1,0,0.1,0,0.2,0h2.8c1,0,1.1-0.4,1.4-3.3l1.8,0.8C185,285.1,184.3,286.1,182.4,286.1z M182.4,268.8v-2.3h-6.2v3.2
			c0,0.7,0.3,1.1,1,1.1h3.2c0.9,0,1.2-0.6,1.3-1.6l1.9,0.8c-0.4,1.8-1.1,2.6-2.8,2.6h-4.2c-1.8,0-2.6-0.9-2.6-2.5v-3.5h-11.2v2.3
			h-2.1v-4.2h10.8v-2h2.6c-0.3,0.2-0.4,0.4-0.4,1.3v0.7h10.8v4.2L182.4,268.8z M170.9,267.9c-0.3,0-0.6,0.2-0.9,0.7
			c-1.9,2.6-4.6,4.5-7.7,5.3l-1.1-1.8c3.9-0.9,6.4-3,7.5-5.3L170.9,267.9L170.9,267.9z"/>
		<path class="st2" d="M168.5,291.7c-0.7,2.4-1.7,4.8-2.9,7h1.2c-0.3,0.2-0.3,0.5-0.3,1.5V314h-2.2v-13c-0.9,1.4-1.8,2.6-2.9,3.8
			l-1.3-2c2.8-2.6,5.8-8.6,6.5-12.6l2.8,0.4C168.9,290.7,168.7,291.1,168.5,291.7z M177.9,296.1v3.7h5.2v2.1h-5.2v3.8h5.2v2.2h-5.2
			v6.2h-2.1v-17.9h-2.4c-0.9,2.3-2,4.5-3.2,6.5l-1.8-1.4c2.1-3.4,3.7-7.1,4.7-10.9l2.7,0.5c-0.7,0.1-1.2,2.4-1.5,3.1h10.3v2.2
			L177.9,296.1z"/>
		<path class="st2" d="M169.5,341v-1.1h-6v1.1h-2v-11h10v11H169.5z M169.5,331.9h-6v6.1h6V331.9z M165.2,327.6v-9.5H180v9.5H165.2z
			 M177.7,320h-10.2v5.8h10.2V320z M181.8,341v-1.1h-6v1.1h-2v-11h10v11H181.8z M181.8,331.9h-6v6.1h6V331.9z"/>
		<path class="st2" d="M165.8,352.7v2.6c0,5.8-1.1,10.2-3.4,13.7l-1.9-1.2c2.1-2.8,3.1-7,3.1-12.4v-8.8h19.6v6.1L165.8,352.7z
			 M183.7,369.5c-4.1-0.9-7.5-3.6-9.2-7.4h-3.3v4.8c1.8-0.3,3.6-0.7,5.4-1.2v1.8c-3,0.7-6,1.3-9,1.7c-1,0.1-1.2,0.2-1.4,0.5
			l-0.4-2.2c1.1,0,2.3-0.2,3.5-0.3v-5.1h-3.7v-1.7h4.8v-3h-3.8v-1.8h3.8v-2.3h2.4c-0.3,0.1-0.4,0.3-0.4,1.2v1.1h4.7v-2.3h2.4
			c-0.3,0.1-0.4,0.3-0.4,1.2v1.1h4v1.8h-4v3h4.7v1.7h-2.3l1.3,1.1H183c-0.3,0-0.6,0.2-1.1,0.7l-2,2c1.5,0.9,3,1.5,4.7,1.9
			L183.7,369.5z M181.1,348.3h-15.3v2.7h15.3L181.1,348.3z M177.2,357.4h-4.7v3h4.7V357.4z M176.4,362.1c0.6,1.1,1.3,2.1,2.3,2.9
			l2.9-2.9H176.4z"/>
	</g>
</g>
<g id="レイヤー_2">
	<g id="修正線">
		<line class="st8" x1="28.3" y1="479.1" x2="170.1" y2="479.1"/>
		<line class="st8" x1="28.3" y1="485" x2="170.1" y2="485"/>
	</g>
	<g id="修正線_00000106860884491921557100000000325158739865923506_">
		<line class="st9" x1="11.3" y1="420.7" x2="187.1" y2="420.7"/>
		<line class="st9" x1="11.3" y1="426.6" x2="187.1" y2="426.6"/>
	</g>
	<g id="オンライン展示">
		<path class="st10" d="M14.2,527.2c0-0.1,0.1-1.5,0.1-1.9c-0.6,1.2-1.4,2.3-2.8,3.8c-1.5,1.6-3.5,3.4-5.3,4.7
			c-1.1,0.8-1.9,1.3-4,2.5c-0.6-1.3-1.1-1.8-2.2-2.8c3.2-1.5,5.8-3.2,8.5-5.9c1.4-1.4,2.7-3,3.6-4.5H4.7c-2,0-2.4,0-3.3,0.1v-3.3
			c1,0.2,1.5,0.2,3.4,0.2h9.3l0-2.2c0-1.5,0-1.5-0.1-2.5h3.6c-0.1,0.7-0.1,1.2-0.1,2.3v0.2l0.1,2.2h2.7c1.8,0,2.2,0,3.2-0.2v3.3
			c-0.8-0.1-1.4-0.1-3.1-0.1h-2.8l0.1,12.5c0,1.3,0.1,2.4,0.2,3.1h-3.7c0.1-0.8,0.2-1.5,0.2-2.6c0-0.2,0-0.3,0-0.5l-0.1-8.1V527.2z"
			/>
		<path class="st10" d="M31.9,534c2.3-0.1,5.5-0.9,8-2c3.4-1.5,5.9-3.5,8-6.6c1.2-1.7,1.9-3.2,2.8-5.4c1.1,1.3,1.5,1.7,2.9,2.6
			c-2.3,4.9-4.9,8.1-8.6,10.6c-2.8,1.8-6.1,3.2-10.3,4.1c-1.1,0.2-1.2,0.2-1.8,0.5L31.9,534z M34.2,517.3c3.2,2,4.9,3.2,7,5.2
			l-2.3,2.9c-2.2-2.3-4.4-4.1-6.9-5.5L34.2,517.3z"/>
		<path class="st10" d="M80.9,524.2c-0.3,0.5-0.4,0.9-0.8,1.7c-1.4,4-3.5,7-6.3,9.1c-1.9,1.5-3.7,2.4-7.1,3.7
			c-0.6-1.4-0.9-1.8-2.1-3.1c3.3-0.8,5.4-1.8,7.5-3.6c2-1.7,3.2-3.3,4.4-6.3H63.4c-1.8,0-2.5,0-3.5,0.1v-3.3c1,0.2,1.6,0.2,3.5,0.2
			h12.9c1.7,0,2.2-0.1,3.1-0.2L80.9,524.2z M62.3,516c0.9,0.2,1.5,0.2,3.2,0.2h9.4c1.7,0,2.3,0,3.2-0.2v3.3
			c-0.8-0.1-1.4-0.1-3.1-0.1h-9.5c-1.8,0-2.3,0-3.1,0.1V516z"/>
		<path class="st10" d="M109,517.5c-0.5,0.4-0.6,0.5-1,0.9c-2,2.1-4.1,3.9-6.4,5.6v11.5c0,1.5,0,2.3,0.1,3h-3.8
			c0.1-0.8,0.2-1.3,0.2-2.9v-9.5c-3.2,1.9-4.7,2.6-9.6,4.4c-0.6-1.4-0.9-1.9-1.8-3.1c5.3-1.5,9.9-3.7,14.2-7c2.4-1.9,4.2-3.7,5-5.1
			L109,517.5z"/>
		<path class="st10" d="M115.8,534c2.3-0.1,5.5-0.9,8-2c3.4-1.5,5.9-3.5,8-6.6c1.2-1.7,1.9-3.2,2.8-5.4c1.1,1.3,1.5,1.7,2.9,2.6
			c-2.3,4.9-4.9,8.1-8.6,10.6c-2.8,1.8-6.1,3.2-10.3,4.1c-1.1,0.2-1.2,0.2-1.8,0.5L115.8,534z M118.1,517.3c3.2,2,4.9,3.2,7,5.2
			l-2.3,2.9c-2.2-2.3-4.4-4.1-6.9-5.5L118.1,517.3z"/>
		<path class="st10" d="M165.6,532.1c-0.7,0.6-0.8,0.7-1.2,1c-1.4,1.3-1.5,1.4-2.2,1.9c1.7,0.9,3.1,1.4,5.8,1.9
			c-0.9,1-1.2,1.5-1.7,2.8c-3.7-1.1-5.8-2.2-8.1-4.1v2.1c-2.2,0.5-4.8,1-9.6,1.9c-0.5,0.1-0.6,0.1-1.1,0.2l-0.5-3.1
			c0.2,0,0.4,0,0.5,0c0.6,0,1.4-0.1,2.7-0.2V531h-2.8c-0.5,3.6-1.2,6.1-2.8,8.7c-0.8-1-1.4-1.6-2.4-2.5c1-1.6,1.6-3.1,2.1-5.2
			c0.5-2.7,0.8-6.9,0.8-12.4c0-2.5,0-3.2-0.2-4.3c0.9,0.1,2,0.1,3.5,0.1h14.7c1.5,0,2.3,0,3.1-0.1c-0.1,0.7-0.1,1.4-0.1,2.4v2.1
			c0,1.1,0,1.6,0.1,2.4c-0.9-0.1-1.9-0.1-3-0.1h-1.6v1.8h1.6c1.6,0,2,0,2.7-0.1v2.7c-0.8-0.1-1.7-0.1-2.7-0.1h-1.5v2.1h2.4
			c1.5,0,2.4,0,3.1-0.1v2.8c-0.9-0.1-1.9-0.1-3-0.1H163L165.6,532.1z M152,522.4v-0.3H148c0,3-0.1,4.6-0.2,6.4h4.3v-2.1h-1
			c-1,0-1.7,0-2.3,0.1v-2.7c0.6,0.1,1.2,0.1,2.3,0.1h1V522.4z M163.4,519.8v-1.9H148v1.9H163.4z M153.1,531v4.9
			c1.5-0.2,1.9-0.3,4.6-0.8c-1.3-1.3-2-2.3-2.8-4.1H153.1z M159,523.9v-1.8h-4.2v1.8H159z M159,528.5v-2.1h-4.2v2.1H159z M157.9,531
			c0.5,1,1.1,1.7,2.1,2.5c1.1-0.8,2-1.7,2.6-2.5H157.9z"/>
		<path class="st10" d="M181.1,527.4c-1.3,3.9-3,7-5.7,9.9c-0.8-0.9-1.4-1.4-2.7-2.1c2.4-2.1,4.4-5.5,5.3-8.9L181.1,527.4z
			 M176.6,524.7c-1.4,0-2.3,0.1-3.3,0.2v-3.3c1,0.1,1.7,0.2,3.4,0.2h17.6c1.4,0,2.4-0.1,3.4-0.2v3.3c-1.1-0.1-1.9-0.2-3.3-0.2h-7
			v11.2c0,1.6-0.2,2.2-0.9,2.7c-0.6,0.4-1.4,0.5-3.3,0.5c-1.2,0-2.2,0-3.2-0.1c-0.1-1.3-0.3-2-0.8-3.1c1.3,0.2,2.5,0.3,3.5,0.3
			c1.3,0,1.4-0.1,1.4-0.7v-10.8H176.6z M194.9,518.4c-1-0.1-2.1-0.2-3.4-0.2h-12.4c-1.1,0-2.2,0.1-3.3,0.2v-3.2
			c1,0.1,1.9,0.2,3.3,0.2h12.4c1.3,0,2.3-0.1,3.3-0.2V518.4z M192.7,526.4c1,2.4,1.7,3.8,3.1,5.7c0.9,1.2,1.5,1.9,2.6,3
			c-1,0.7-1.6,1.4-2.5,2.4c-3-3.6-4.2-5.5-6-9.9L192.7,526.4z"/>
	</g>
</g>
</svg>
